<?xml version="1.0" encoding="UTF-8" standalone="no"?><!DOCTYPE svg PUBLIC "-//W3C//DTD SVG 1.1//EN" "http://www.w3.org/Graphics/SVG/1.1/DTD/svg11.dtd"><svg width="100%" height="100%" viewBox="0 0 260 77" version="1.1" xmlns="http://www.w3.org/2000/svg" xmlns:xlink="http://www.w3.org/1999/xlink" xml:space="preserve" xmlns:serif="http://www.serif.com/" style="fill-rule:evenodd;clip-rule:evenodd;stroke-linecap:square;stroke-linejoin:round;stroke-miterlimit:1.5;"><g><g id="Varianta-1" serif:id="Varianta 1"><g><g><path d="M68.687,76.531l-68.142,0l0,-41.991c0,-18.804 15.267,-34.071 34.071,-34.071c18.804,0 34.071,15.267 34.071,34.071l0,41.991Zm-2.218,-2.477l0,-39.256c0,-17.58 -14.273,-31.852 -31.853,-31.852c-17.58,0 -31.852,14.272 -31.852,31.852l0,39.256l63.705,0Z" style="fill:#e8573c;"/><path d="M61.149,70.179l0,-34.762c0,-14.644 -11.889,-26.533 -26.533,-26.533c-14.644,0 -26.533,11.889 -26.533,26.533l0,34.762l-1.848,0l0,-34.977c0,-15.664 12.717,-28.381 28.381,-28.381c15.664,0 28.381,12.717 28.381,28.381l0,34.977l-1.848,0Z" style="fill:#e8573c;"/><path d="M34.8,6.822l0.183,0.001l0.183,0.003l0.182,0.004l0.182,0.005l0.182,0.007l0.182,0.007l0.182,0.009l0.181,0.01l0.181,0.011l0.18,0.012l0.18,0.013l0.18,0.014l0.18,0.015l0.179,0.017l0.179,0.018l0.179,0.018l0.178,0.02l0.178,0.021l0.178,0.022l0.177,0.023l0.177,0.025l0.177,0.025l0.176,0.026l0.176,0.028l0.175,0.028l0.175,0.03l0.175,0.031l0.175,0.031l0.174,0.033l0.173,0.034l0.174,0.035l0.173,0.036l0.172,0.037l0.172,0.038l0.172,0.039l0.172,0.04l0.171,0.042l0.17,0.042l0.17,0.043l0.17,0.044l0.17,0.046l0.168,0.046l0.169,0.047l0.168,0.049l0.168,0.049l0.167,0.05l0.167,0.052l0.166,0.052l0.166,0.054l0.166,0.054l0.165,0.055l0.164,0.057l0.164,0.057l0.164,0.058l0.163,0.059l0.163,0.06l0.162,0.062l0.162,0.062l0.161,0.063l0.161,0.064l0.161,0.065l0.159,0.066l0.16,0.067l0.159,0.068l0.158,0.068l0.158,0.07l0.157,0.071l0.157,0.071l0.157,0.073l0.155,0.073l0.156,0.074l0.155,0.076l0.154,0.076l0.154,0.077l0.153,0.078l0.153,0.079l0.152,0.079l0.151,0.081l0.151,0.081l0.151,0.083l0.15,0.083l0.149,0.084l0.149,0.085l0.148,0.086l0.148,0.087l0.147,0.088l0.147,0.088l0.146,0.09l0.145,0.09l0.145,0.091l0.144,0.092l0.144,0.092l0.143,0.094l0.143,0.094l0.141,0.096l0.142,0.096l0.14,0.097l0.14,0.097l0.14,0.099l0.139,0.099l0.138,0.101l0.137,0.101l0.137,0.101l0.137,0.103l0.135,0.103l0.135,0.104l0.135,0.105l0.133,0.106l0.133,0.107l0.133,0.107l0.132,0.108l0.131,0.109l0.13,0.11l0.13,0.11l0.129,0.111l0.128,0.112l0.128,0.113l0.127,0.113l0.127,0.114l0.125,0.115l0.125,0.116l0.125,0.116l0.123,0.118l0.123,0.117l0.122,0.119l0.122,0.119l0.12,0.12l0.12,0.121l0.12,0.122l0.118,0.122l0.118,0.123l0.117,0.123l0.117,0.125l0.115,0.125l0.115,0.125l0.115,0.127l0.113,0.127l0.113,0.128l0.112,0.128l0.111,0.129l0.11,0.13l0.11,0.13l0.109,0.131l0.108,0.132l0.107,0.132l0.107,0.134l0.105,0.133l0.105,0.135l0.105,0.135l0.103,0.135l0.103,0.137l0.101,0.137l0.101,0.137l0.101,0.138l0.099,0.139l0.098,0.139l0.098,0.141l0.097,0.14l0.096,0.141l0.095,0.142l0.095,0.143l0.093,0.143l0.093,0.143l0.092,0.145l0.091,0.145l0.09,0.145l0.09,0.146l0.088,0.147l0.088,0.147l0.087,0.147l0.085,0.149l0.086,0.149l0.084,0.149l0.083,0.15l0.082,0.15l0.082,0.152l0.081,0.151l0.079,0.152l0.079,0.153l0.078,0.153l0.077,0.154l0.076,0.154l0.075,0.155l0.075,0.155l0.073,0.156l0.073,0.157l0.071,0.157l0.071,0.157l0.07,0.158l0.068,0.158l0.068,0.159l0.067,0.16l0.066,0.159l0.065,0.161l0.064,0.161l0.063,0.161l0.062,0.162l0.061,0.162l0.061,0.163l0.059,0.163l0.058,0.164l0.057,0.164l0.057,0.164l0.055,0.165l0.054,0.166l0.054,0.166l0.052,0.166l0.051,0.167l0.051,0.167l0.049,0.168l0.048,0.168l0.048,0.168l0.046,0.169l0.045,0.17l0.045,0.169l0.043,0.171l0.042,0.17l0.041,0.171l0.041,0.172l0.039,0.171l0.038,0.173l0.037,0.172l0.036,0.173l0.035,0.173l0.034,0.174l0.033,0.174l0.031,0.175l0.031,0.174l0.03,0.176l0.028,0.175l0.028,0.176l0.026,0.176l0.025,0.177l0.025,0.177l0.023,0.177l0.022,0.178l0.021,0.178l0.02,0.178l0.018,0.179l0.018,0.179l0.016,0.179l0.016,0.18l0.014,0.179l0.013,0.181l0.012,0.18l0.011,0.181l0.01,0.181l0.009,0.182l0.007,0.181l0.006,0.182l0.006,0.183l0.004,0.182l0.003,0.183l0.001,0.183l0.001,0.184l0,34.977l-1.848,0l0,-34.762l-0.001,-0.172l-0.001,-0.171l-0.003,-0.171l-0.004,-0.171l-0.005,-0.17l-0.006,-0.17l-0.007,-0.17l-0.008,-0.17l-0.009,-0.169l-0.01,-0.169l-0.011,-0.169l-0.013,-0.169l-0.013,-0.168l-0.014,-0.168l-0.016,-0.167l-0.016,-0.168l-0.018,-0.167l-0.018,-0.166l-0.02,-0.167l-0.02,-0.166l-0.022,-0.166l-0.023,-0.165l-0.023,-0.165l-0.025,-0.165l-0.026,-0.164l-0.026,-0.164l-0.028,-0.164l-0.029,-0.164l-0.03,-0.163l-0.03,-0.162l-0.032,-0.163l-0.033,-0.162l-0.033,-0.162l-0.035,-0.161l-0.035,-0.161l-0.037,-0.16l-0.038,-0.161l-0.038,-0.16l-0.04,-0.159l-0.04,-0.159l-0.041,-0.159l-0.043,-0.158l-0.043,-0.158l-0.044,-0.158l-0.046,-0.157l-0.046,-0.157l-0.047,-0.156l-0.048,-0.156l-0.049,-0.155l-0.05,-0.155l-0.05,-0.155l-0.052,-0.154l-0.053,-0.154l-0.053,-0.154l-0.055,-0.153l-0.055,-0.152l-0.057,-0.153l-0.057,-0.151l-0.058,-0.151l-0.059,-0.151l-0.06,-0.151l-0.06,-0.15l-0.062,-0.149l-0.063,-0.149l-0.063,-0.149l-0.064,-0.148l-0.065,-0.147l-0.066,-0.147l-0.067,-0.147l-0.068,-0.146l-0.069,-0.146l-0.069,-0.145l-0.071,-0.145l-0.071,-0.144l-0.072,-0.144l-0.073,-0.143l-0.073,-0.143l-0.075,-0.142l-0.075,-0.142l-0.076,-0.141l-0.078,-0.141l-0.077,-0.14l-0.079,-0.14l-0.08,-0.139l-0.08,-0.139l-0.081,-0.138l-0.082,-0.137l-0.083,-0.137l-0.083,-0.137l-0.085,-0.136l-0.085,-0.135l-0.086,-0.135l-0.086,-0.134l-0.088,-0.134l-0.088,-0.133l-0.089,-0.133l-0.09,-0.132l-0.091,-0.131l-0.091,-0.131l-0.092,-0.131l-0.093,-0.129l-0.094,-0.13l-0.094,-0.128l-0.095,-0.128l-0.096,-0.128l-0.097,-0.126l-0.097,-0.127l-0.098,-0.125l-0.099,-0.125l-0.1,-0.125l-0.1,-0.124l-0.101,-0.123l-0.102,-0.122l-0.102,-0.122l-0.104,-0.122l-0.104,-0.12l-0.104,-0.12l-0.106,-0.12l-0.106,-0.118l-0.106,-0.119l-0.108,-0.117l-0.108,-0.117l-0.109,-0.116l-0.109,-0.116l-0.11,-0.115l-0.111,-0.114l-0.112,-0.113l-0.112,-0.113l-0.113,-0.113l-0.114,-0.111l-0.114,-0.111l-0.115,-0.11l-0.115,-0.11l-0.116,-0.108l-0.117,-0.109l-0.118,-0.107l-0.118,-0.107l-0.119,-0.106l-0.119,-0.105l-0.12,-0.105l-0.121,-0.104l-0.121,-0.103l-0.122,-0.102l-0.123,-0.102l-0.123,-0.101l-0.124,-0.101l-0.124,-0.099l-0.125,-0.099l-0.126,-0.098l-0.126,-0.098l-0.127,-0.096l-0.127,-0.096l-0.128,-0.095l-0.129,-0.095l-0.129,-0.093l-0.13,-0.093l-0.13,-0.092l-0.131,-0.092l-0.131,-0.09l-0.132,-0.09l-0.133,-0.089l-0.133,-0.089l-0.134,-0.087l-0.134,-0.087l-0.135,-0.086l-0.136,-0.085l-0.136,-0.084l-0.136,-0.084l-0.137,-0.082l-0.138,-0.082l-0.138,-0.081l-0.138,-0.081l-0.14,-0.079l-0.139,-0.079l-0.14,-0.078l-0.141,-0.077l-0.141,-0.076l-0.142,-0.075l-0.142,-0.075l-0.143,-0.074l-0.143,-0.073l-0.144,-0.072l-0.144,-0.071l-0.145,-0.07l-0.145,-0.07l-0.146,-0.068l-0.146,-0.068l-0.147,-0.067l-0.147,-0.066l-0.148,-0.065l-0.148,-0.064l-0.148,-0.064l-0.149,-0.062l-0.15,-0.062l-0.15,-0.061l-0.15,-0.06l-0.151,-0.059l-0.151,-0.058l-0.152,-0.057l-0.152,-0.056l-0.153,-0.055l-0.153,-0.055l-0.153,-0.054l-0.154,-0.052l-0.154,-0.052l-0.155,-0.051l-0.155,-0.05l-0.156,-0.049l-0.155,-0.048l-0.157,-0.047l-0.157,-0.046l-0.157,-0.045l-0.157,-0.044l-0.158,-0.044l-0.159,-0.042l-0.158,-0.041l-0.159,-0.041l-0.16,-0.039l-0.16,-0.039l-0.16,-0.037l-0.16,-0.037l-0.161,-0.035l-0.162,-0.035l-0.161,-0.034l-0.162,-0.032l-0.163,-0.032l-0.163,-0.031l-0.163,-0.029l-0.163,-0.029l-0.164,-0.028l-0.164,-0.027l-0.164,-0.025l-0.165,-0.025l-0.165,-0.024l-0.166,-0.022l-0.166,-0.022l-0.166,-0.02l-0.166,-0.02l-0.167,-0.019l-0.167,-0.017l-0.167,-0.017l-0.168,-0.015l-0.168,-0.014l-0.168,-0.014l-0.168,-0.012l-0.169,-0.011l-0.169,-0.011l-0.169,-0.009l-0.17,-0.008l-0.17,-0.007l-0.17,-0.006l-0.171,-0.005l-0.17,-0.003l-0.171,-0.003l-0.171,-0.002l-0.172,0l-0.171,0l-0.172,0.002l-0.171,0.003l-0.17,0.003l-0.171,0.005l-0.17,0.006l-0.17,0.007l-0.169,0.008l-0.17,0.009l-0.169,0.011l-0.169,0.011l-0.168,0.012l-0.168,0.014l-0.168,0.014l-0.168,0.015l-0.167,0.017l-0.167,0.017l-0.167,0.019l-0.166,0.02l-0.166,0.02l-0.166,0.022l-0.165,0.022l-0.166,0.024l-0.164,0.025l-0.165,0.025l-0.164,0.027l-0.164,0.028l-0.163,0.028l-0.163,0.03l-0.163,0.031l-0.162,0.032l-0.162,0.032l-0.162,0.034l-0.161,0.035l-0.161,0.035l-0.161,0.037l-0.16,0.037l-0.16,0.039l-0.159,0.039l-0.16,0.041l-0.158,0.041l-0.159,0.042l-0.158,0.044l-0.157,0.044l-0.157,0.045l-0.157,0.046l-0.156,0.047l-0.156,0.048l-0.156,0.049l-0.155,0.05l-0.155,0.051l-0.154,0.052l-0.154,0.052l-0.153,0.054l-0.153,0.054l-0.153,0.056l-0.152,0.056l-0.152,0.057l-0.151,0.058l-0.151,0.059l-0.15,0.06l-0.15,0.061l-0.149,0.062l-0.149,0.062l-0.149,0.064l-0.148,0.064l-0.148,0.065l-0.147,0.066l-0.146,0.067l-0.147,0.068l-0.145,0.068l-0.146,0.07l-0.144,0.07l-0.145,0.071l-0.143,0.072l-0.144,0.073l-0.142,0.074l-0.143,0.074l-0.141,0.076l-0.142,0.076l-0.14,0.077l-0.14,0.078l-0.14,0.079l-0.139,0.079l-0.139,0.08l-0.138,0.082l-0.138,0.082l-0.137,0.082l-0.136,0.084l-0.136,0.084l-0.136,0.085l-0.134,0.086l-0.135,0.087l-0.133,0.087l-0.134,0.089l-0.132,0.089l-0.132,0.09l-0.132,0.09l-0.131,0.091l-0.13,0.093l-0.13,0.093l-0.129,0.093l-0.129,0.095l-0.128,0.095l-0.127,0.096l-0.127,0.096l-0.126,0.098l-0.126,0.098l-0.125,0.099l-0.124,0.099l-0.124,0.101l-0.123,0.101l-0.123,0.101l-0.122,0.103l-0.121,0.103l-0.121,0.104l-0.12,0.105l-0.119,0.105l-0.119,0.106l-0.118,0.107l-0.117,0.107l-0.117,0.108l-0.117,0.109l-0.115,0.11l-0.115,0.11l-0.114,0.111l-0.114,0.111l-0.113,0.113l-0.112,0.113l-0.111,0.113l-0.111,0.114l-0.11,0.115l-0.11,0.116l-0.109,0.116l-0.108,0.117l-0.107,0.117l-0.107,0.118l-0.106,0.119l-0.106,0.12l-0.104,0.12l-0.104,0.12l-0.103,0.122l-0.103,0.122l-0.102,0.122l-0.101,0.123l-0.1,0.124l-0.1,0.125l-0.098,0.125l-0.099,0.125l-0.097,0.126l-0.097,0.127l-0.096,0.128l-0.095,0.128l-0.094,0.128l-0.094,0.13l-0.093,0.129l-0.092,0.131l-0.091,0.131l-0.091,0.131l-0.09,0.132l-0.089,0.133l-0.088,0.133l-0.087,0.134l-0.087,0.134l-0.086,0.135l-0.085,0.135l-0.085,0.136l-0.083,0.137l-0.083,0.137l-0.082,0.137l-0.081,0.138l-0.08,0.139l-0.08,0.139l-0.078,0.14l-0.078,0.14l-0.077,0.141l-0.076,0.141l-0.076,0.142l-0.074,0.142l-0.074,0.143l-0.073,0.143l-0.072,0.144l-0.071,0.144l-0.071,0.145l-0.069,0.145l-0.069,0.146l-0.067,0.146l-0.067,0.146l-0.066,0.148l-0.065,0.147l-0.065,0.148l-0.063,0.149l-0.063,0.149l-0.061,0.149l-0.061,0.15l-0.06,0.151l-0.059,0.15l-0.058,0.152l-0.057,0.151l-0.057,0.153l-0.055,0.152l-0.054,0.153l-0.054,0.154l-0.053,0.153l-0.051,0.155l-0.051,0.154l-0.05,0.156l-0.049,0.155l-0.048,0.156l-0.047,0.156l-0.046,0.157l-0.045,0.157l-0.045,0.158l-0.043,0.158l-0.042,0.158l-0.042,0.159l-0.04,0.159l-0.04,0.159l-0.038,0.16l-0.038,0.16l-0.036,0.161l-0.036,0.161l-0.035,0.161l-0.033,0.162l-0.033,0.162l-0.032,0.162l-0.03,0.163l-0.03,0.163l-0.029,0.164l-0.027,0.164l-0.027,0.164l-0.026,0.164l-0.024,0.165l-0.024,0.165l-0.023,0.165l-0.021,0.166l-0.021,0.166l-0.019,0.167l-0.019,0.166l-0.018,0.167l-0.016,0.168l-0.015,0.167l-0.015,0.168l-0.013,0.168l-0.013,0.169l-0.011,0.169l-0.01,0.169l-0.009,0.169l-0.008,0.17l-0.007,0.17l-0.006,0.17l-0.005,0.17l-0.004,0.171l-0.002,0.171l-0.002,0.171l-0.001,0.172l0,34.762l-1.848,0l0,-34.977l0.001,-0.184l0.002,-0.183l0.003,-0.183l0.004,-0.182l0.005,-0.183l0.006,-0.182l0.008,-0.181l0.008,-0.182l0.01,-0.181l0.011,-0.181l0.012,-0.18l0.013,-0.181l0.014,-0.179l0.016,-0.18l0.016,-0.179l0.018,-0.179l0.019,-0.179l0.02,-0.178l0.02,-0.178l0.023,-0.178l0.023,-0.177l0.024,-0.177l0.025,-0.177l0.027,-0.176l0.027,-0.176l0.029,-0.175l0.029,-0.176l0.031,-0.174l0.032,-0.175l0.033,-0.174l0.033,-0.174l0.035,-0.173l0.036,-0.173l0.037,-0.172l0.038,-0.173l0.04,-0.171l0.04,-0.172l0.041,-0.171l0.042,-0.17l0.044,-0.171l0.044,-0.169l0.045,-0.17l0.046,-0.169l0.048,-0.168l0.048,-0.168l0.049,-0.168l0.051,-0.167l0.051,-0.167l0.053,-0.166l0.053,-0.166l0.054,-0.166l0.056,-0.165l0.056,-0.164l0.057,-0.164l0.058,-0.164l0.06,-0.163l0.06,-0.163l0.061,-0.162l0.062,-0.162l0.063,-0.161l0.064,-0.161l0.065,-0.161l0.066,-0.16l0.067,-0.159l0.068,-0.159l0.069,-0.158l0.069,-0.158l0.071,-0.158l0.072,-0.156l0.072,-0.157l0.074,-0.156l0.074,-0.155l0.075,-0.155l0.076,-0.154l0.077,-0.154l0.078,-0.153l0.079,-0.153l0.08,-0.152l0.08,-0.152l0.082,-0.151l0.082,-0.15l0.084,-0.15l0.084,-0.15l0.085,-0.148l0.086,-0.149l0.086,-0.147l0.088,-0.148l0.089,-0.146l0.089,-0.146l0.09,-0.146l0.091,-0.144l0.092,-0.145l0.093,-0.143l0.093,-0.143l0.095,-0.143l0.095,-0.142l0.096,-0.141l0.097,-0.141l0.098,-0.14l0.098,-0.139l0.1,-0.139l0.1,-0.138l0.101,-0.138l0.102,-0.136l0.102,-0.137l0.104,-0.135l0.104,-0.135l0.105,-0.135l0.106,-0.134l0.106,-0.133l0.107,-0.132l0.109,-0.132l0.108,-0.131l0.11,-0.13l0.11,-0.13l0.112,-0.129l0.112,-0.129l0.112,-0.127l0.114,-0.127l0.114,-0.127l0.115,-0.125l0.115,-0.125l0.117,-0.125l0.117,-0.123l0.118,-0.123l0.118,-0.122l0.12,-0.122l0.12,-0.121l0.121,-0.12l0.121,-0.119l0.122,-0.119l0.123,-0.117l0.124,-0.118l0.124,-0.116l0.125,-0.116l0.126,-0.115l0.126,-0.114l0.127,-0.113l0.128,-0.113l0.128,-0.112l0.129,-0.111l0.13,-0.11l0.131,-0.11l0.131,-0.109l0.131,-0.108l0.133,-0.107l0.133,-0.107l0.134,-0.106l0.134,-0.105l0.135,-0.104l0.136,-0.103l0.136,-0.103l0.137,-0.102l0.137,-0.1l0.139,-0.101l0.138,-0.099l0.14,-0.099l0.14,-0.097l0.141,-0.097l0.141,-0.096l0.142,-0.096l0.142,-0.094l0.143,-0.094l0.144,-0.092l0.144,-0.092l0.145,-0.091l0.145,-0.09l0.146,-0.09l0.147,-0.088l0.147,-0.088l0.148,-0.087l0.148,-0.086l0.149,-0.085l0.149,-0.084l0.15,-0.083l0.151,-0.083l0.151,-0.081l0.152,-0.081l0.152,-0.079l0.152,-0.079l0.154,-0.078l0.153,-0.077l0.155,-0.076l0.154,-0.076l0.156,-0.074l0.156,-0.073l0.156,-0.073l0.157,-0.071l0.157,-0.071l0.158,-0.07l0.159,-0.068l0.158,-0.068l0.16,-0.067l0.16,-0.066l0.16,-0.065l0.161,-0.064l0.161,-0.063l0.162,-0.062l0.162,-0.062l0.163,-0.06l0.163,-0.059l0.164,-0.058l0.164,-0.058l0.165,-0.056l0.165,-0.055l0.165,-0.054l0.166,-0.054l0.166,-0.052l0.167,-0.052l0.168,-0.05l0.167,-0.049l0.168,-0.049l0.169,-0.047l0.169,-0.046l0.169,-0.046l0.17,-0.044l0.17,-0.043l0.171,-0.042l0.171,-0.042l0.171,-0.04l0.172,-0.039l0.172,-0.038l0.172,-0.037l0.173,-0.036l0.174,-0.035l0.173,-0.034l0.175,-0.033l0.174,-0.031l0.175,-0.031l0.175,-0.03l0.176,-0.028l0.175,-0.028l0.177,-0.026l0.176,-0.025l0.177,-0.025l0.178,-0.023l0.177,-0.022l0.178,-0.021l0.178,-0.02l0.179,-0.018l0.179,-0.018l0.179,-0.017l0.18,-0.015l0.18,-0.014l0.18,-0.013l0.181,-0.012l0.18,-0.011l0.182,-0.01l0.181,-0.009l0.182,-0.007l0.182,-0.007l0.182,-0.005l0.183,-0.004l0.183,-0.003l0.183,-0.001l0.183,-0.001l0.184,0.001Z" style="fill:#e8573c;"/><path d="M60.631,69.561l0,-34.084c0,-14.358 -11.657,-26.015 -26.015,-26.015c-14.358,0 -26.015,11.657 -26.015,26.015l0,34.084l-1.812,0l0,-34.295c0,-15.358 12.469,-27.827 27.827,-27.827c15.358,0 27.827,12.469 27.827,27.827l0,34.295l-1.812,0Z" style="fill:#e8573c;"/><path d="M34.796,7.44l0.18,0.002l0.179,0.002l0.179,0.004l0.179,0.005l0.178,0.007l0.178,0.007l0.178,0.008l0.178,0.01l0.177,0.011l0.177,0.012l0.177,0.012l0.176,0.014l0.176,0.016l0.176,0.016l0.176,0.017l0.175,0.018l0.175,0.02l0.174,0.02l0.174,0.022l0.174,0.023l0.174,0.023l0.173,0.025l0.172,0.026l0.173,0.027l0.172,0.028l0.172,0.029l0.171,0.03l0.171,0.031l0.171,0.033l0.17,0.033l0.17,0.034l0.17,0.035l0.169,0.037l0.169,0.037l0.168,0.038l0.168,0.04l0.168,0.04l0.167,0.042l0.167,0.042l0.167,0.043l0.166,0.045l0.165,0.045l0.165,0.047l0.165,0.047l0.165,0.048l0.164,0.05l0.163,0.05l0.163,0.051l0.163,0.053l0.162,0.053l0.162,0.054l0.161,0.056l0.161,0.056l0.161,0.057l0.16,0.058l0.159,0.059l0.159,0.06l0.159,0.061l0.158,0.062l0.158,0.062l0.157,0.064l0.157,0.065l0.156,0.065l0.156,0.067l0.155,0.067l0.155,0.069l0.154,0.069l0.154,0.07l0.154,0.071l0.152,0.072l0.153,0.073l0.152,0.074l0.151,0.074l0.151,0.076l0.15,0.076l0.15,0.078l0.149,0.078l0.148,0.079l0.149,0.08l0.147,0.081l0.147,0.081l0.147,0.083l0.146,0.083l0.145,0.084l0.145,0.086l0.144,0.085l0.144,0.087l0.143,0.088l0.143,0.088l0.142,0.09l0.141,0.09l0.141,0.091l0.14,0.091l0.14,0.093l0.139,0.093l0.138,0.095l0.138,0.095l0.138,0.095l0.136,0.097l0.136,0.097l0.136,0.099l0.135,0.099l0.134,0.099l0.134,0.101l0.133,0.101l0.132,0.103l0.132,0.103l0.131,0.103l0.13,0.105l0.13,0.105l0.129,0.106l0.129,0.107l0.128,0.107l0.127,0.108l0.127,0.109l0.125,0.11l0.126,0.111l0.124,0.111l0.124,0.112l0.123,0.112l0.123,0.114l0.122,0.114l0.121,0.115l0.121,0.115l0.119,0.117l0.119,0.117l0.119,0.117l0.118,0.119l0.117,0.119l0.116,0.12l0.115,0.12l0.115,0.121l0.114,0.122l0.114,0.123l0.112,0.123l0.112,0.124l0.112,0.125l0.11,0.125l0.11,0.126l0.109,0.126l0.108,0.127l0.108,0.128l0.106,0.129l0.106,0.129l0.106,0.13l0.104,0.13l0.104,0.132l0.103,0.131l0.102,0.133l0.101,0.133l0.101,0.133l0.1,0.135l0.099,0.134l0.098,0.136l0.097,0.136l0.097,0.137l0.096,0.137l0.095,0.138l0.094,0.138l0.093,0.139l0.093,0.14l0.092,0.14l0.091,0.141l0.09,0.142l0.089,0.142l0.088,0.142l0.088,0.143l0.087,0.144l0.086,0.144l0.085,0.145l0.084,0.146l0.083,0.146l0.083,0.146l0.082,0.147l0.08,0.148l0.08,0.148l0.079,0.149l0.079,0.149l0.077,0.149l0.076,0.151l0.076,0.15l0.074,0.152l0.074,0.152l0.073,0.152l0.072,0.153l0.071,0.153l0.07,0.154l0.07,0.154l0.068,0.155l0.067,0.155l0.067,0.156l0.065,0.156l0.065,0.157l0.064,0.157l0.063,0.158l0.061,0.158l0.061,0.159l0.06,0.159l0.059,0.159l0.058,0.16l0.058,0.161l0.056,0.161l0.055,0.161l0.054,0.162l0.053,0.162l0.053,0.163l0.051,0.163l0.05,0.164l0.05,0.164l0.048,0.164l0.048,0.165l0.046,0.165l0.045,0.166l0.045,0.166l0.043,0.166l0.043,0.167l0.041,0.167l0.041,0.168l0.039,0.168l0.038,0.168l0.038,0.169l0.036,0.169l0.035,0.17l0.035,0.17l0.033,0.17l0.032,0.171l0.031,0.171l0.03,0.171l0.029,0.172l0.028,0.172l0.027,0.173l0.026,0.173l0.025,0.173l0.024,0.173l0.022,0.174l0.022,0.174l0.02,0.175l0.02,0.175l0.018,0.175l0.018,0.175l0.016,0.176l0.015,0.176l0.014,0.176l0.013,0.177l0.012,0.177l0.01,0.177l0.01,0.178l0.008,0.178l0.008,0.178l0.006,0.179l0.005,0.178l0.004,0.179l0.003,0.18l0.001,0.179l0.001,0.18l0,34.295l-1.812,0l0,-34.084l0,-0.168l-0.002,-0.168l-0.003,-0.168l-0.003,-0.167l-0.005,-0.167l-0.006,-0.167l-0.007,-0.167l-0.008,-0.166l-0.009,-0.166l-0.01,-0.166l-0.011,-0.165l-0.012,-0.166l-0.013,-0.165l-0.014,-0.164l-0.015,-0.165l-0.016,-0.164l-0.018,-0.163l-0.018,-0.164l-0.019,-0.163l-0.02,-0.163l-0.021,-0.162l-0.023,-0.162l-0.023,-0.162l-0.024,-0.162l-0.025,-0.161l-0.026,-0.161l-0.027,-0.161l-0.029,-0.16l-0.029,-0.16l-0.03,-0.159l-0.031,-0.16l-0.032,-0.158l-0.033,-0.159l-0.034,-0.158l-0.035,-0.158l-0.036,-0.157l-0.036,-0.158l-0.038,-0.156l-0.039,-0.157l-0.04,-0.156l-0.04,-0.155l-0.042,-0.155l-0.042,-0.155l-0.044,-0.155l-0.044,-0.154l-0.045,-0.154l-0.046,-0.153l-0.047,-0.153l-0.048,-0.152l-0.049,-0.152l-0.05,-0.152l-0.051,-0.151l-0.051,-0.151l-0.053,-0.151l-0.053,-0.15l-0.055,-0.149l-0.055,-0.149l-0.056,-0.149l-0.057,-0.148l-0.058,-0.148l-0.058,-0.148l-0.06,-0.147l-0.06,-0.146l-0.062,-0.146l-0.062,-0.146l-0.063,-0.145l-0.064,-0.145l-0.065,-0.144l-0.065,-0.144l-0.067,-0.143l-0.067,-0.143l-0.068,-0.143l-0.069,-0.142l-0.07,-0.141l-0.07,-0.141l-0.072,-0.14l-0.072,-0.14l-0.073,-0.14l-0.074,-0.139l-0.075,-0.138l-0.075,-0.138l-0.077,-0.138l-0.077,-0.137l-0.078,-0.136l-0.078,-0.136l-0.08,-0.135l-0.08,-0.135l-0.081,-0.135l-0.082,-0.134l-0.083,-0.133l-0.084,-0.133l-0.084,-0.132l-0.085,-0.131l-0.086,-0.132l-0.086,-0.13l-0.087,-0.13l-0.089,-0.13l-0.088,-0.129l-0.09,-0.128l-0.09,-0.128l-0.091,-0.127l-0.092,-0.127l-0.093,-0.126l-0.093,-0.125l-0.094,-0.125l-0.095,-0.125l-0.095,-0.123l-0.097,-0.123l-0.096,-0.123l-0.098,-0.122l-0.099,-0.121l-0.099,-0.121l-0.099,-0.12l-0.101,-0.12l-0.101,-0.119l-0.102,-0.118l-0.103,-0.118l-0.103,-0.117l-0.104,-0.116l-0.105,-0.116l-0.105,-0.116l-0.106,-0.114l-0.107,-0.114l-0.107,-0.113l-0.108,-0.113l-0.109,-0.112l-0.109,-0.111l-0.11,-0.111l-0.111,-0.11l-0.111,-0.109l-0.112,-0.109l-0.113,-0.108l-0.113,-0.108l-0.114,-0.106l-0.115,-0.106l-0.115,-0.106l-0.116,-0.104l-0.116,-0.104l-0.117,-0.104l-0.118,-0.102l-0.118,-0.102l-0.119,-0.101l-0.12,-0.101l-0.12,-0.1l-0.121,-0.099l-0.121,-0.098l-0.122,-0.098l-0.123,-0.097l-0.123,-0.096l-0.124,-0.095l-0.124,-0.095l-0.125,-0.094l-0.125,-0.093l-0.126,-0.093l-0.127,-0.092l-0.127,-0.091l-0.128,-0.09l-0.129,-0.09l-0.128,-0.089l-0.13,-0.088l-0.13,-0.087l-0.131,-0.087l-0.131,-0.085l-0.131,-0.085l-0.133,-0.085l-0.132,-0.083l-0.134,-0.083l-0.133,-0.082l-0.135,-0.081l-0.135,-0.08l-0.135,-0.08l-0.136,-0.078l-0.136,-0.078l-0.137,-0.078l-0.138,-0.076l-0.138,-0.075l-0.138,-0.075l-0.139,-0.074l-0.14,-0.073l-0.14,-0.072l-0.14,-0.072l-0.141,-0.07l-0.142,-0.07l-0.142,-0.069l-0.142,-0.068l-0.143,-0.068l-0.143,-0.066l-0.144,-0.066l-0.144,-0.064l-0.145,-0.064l-0.145,-0.063l-0.146,-0.062l-0.146,-0.062l-0.146,-0.06l-0.147,-0.06l-0.148,-0.059l-0.148,-0.057l-0.148,-0.057l-0.149,-0.056l-0.149,-0.056l-0.15,-0.054l-0.15,-0.053l-0.15,-0.053l-0.151,-0.051l-0.151,-0.051l-0.152,-0.05l-0.152,-0.049l-0.152,-0.048l-0.153,-0.047l-0.154,-0.046l-0.153,-0.045l-0.154,-0.045l-0.155,-0.043l-0.155,-0.042l-0.155,-0.042l-0.156,-0.041l-0.156,-0.039l-0.156,-0.039l-0.157,-0.038l-0.157,-0.037l-0.157,-0.035l-0.158,-0.035l-0.158,-0.034l-0.159,-0.033l-0.159,-0.032l-0.159,-0.031l-0.159,-0.03l-0.16,-0.03l-0.161,-0.028l-0.16,-0.027l-0.161,-0.026l-0.161,-0.025l-0.162,-0.024l-0.162,-0.024l-0.162,-0.022l-0.162,-0.021l-0.163,-0.02l-0.163,-0.019l-0.164,-0.019l-0.164,-0.017l-0.164,-0.016l-0.164,-0.015l-0.165,-0.014l-0.165,-0.013l-0.165,-0.012l-0.165,-0.011l-0.166,-0.01l-0.166,-0.009l-0.166,-0.008l-0.167,-0.007l-0.167,-0.006l-0.167,-0.005l-0.167,-0.003l-0.168,-0.003l-0.168,-0.002l-0.168,0l-0.168,0l-0.168,0.002l-0.168,0.003l-0.167,0.003l-0.167,0.005l-0.167,0.006l-0.166,0.007l-0.167,0.008l-0.166,0.009l-0.166,0.01l-0.165,0.011l-0.165,0.012l-0.165,0.013l-0.165,0.014l-0.164,0.015l-0.164,0.016l-0.164,0.017l-0.163,0.019l-0.163,0.019l-0.163,0.02l-0.163,0.021l-0.162,0.022l-0.162,0.024l-0.161,0.024l-0.162,0.025l-0.161,0.026l-0.16,0.027l-0.16,0.028l-0.16,0.03l-0.16,0.03l-0.159,0.031l-0.159,0.032l-0.159,0.033l-0.158,0.034l-0.158,0.035l-0.157,0.035l-0.157,0.037l-0.157,0.038l-0.156,0.039l-0.156,0.039l-0.156,0.041l-0.155,0.042l-0.155,0.042l-0.154,0.043l-0.154,0.045l-0.154,0.045l-0.153,0.046l-0.153,0.047l-0.153,0.048l-0.152,0.049l-0.152,0.05l-0.151,0.051l-0.151,0.051l-0.15,0.053l-0.15,0.053l-0.15,0.054l-0.149,0.056l-0.149,0.056l-0.148,0.057l-0.148,0.057l-0.147,0.059l-0.147,0.06l-0.147,0.06l-0.146,0.061l-0.146,0.063l-0.145,0.063l-0.145,0.064l-0.144,0.064l-0.144,0.066l-0.143,0.066l-0.143,0.068l-0.142,0.068l-0.142,0.069l-0.142,0.069l-0.14,0.071l-0.141,0.072l-0.14,0.072l-0.139,0.073l-0.139,0.074l-0.139,0.075l-0.138,0.075l-0.137,0.076l-0.137,0.078l-0.137,0.078l-0.136,0.078l-0.135,0.08l-0.135,0.08l-0.134,0.081l-0.134,0.082l-0.133,0.083l-0.133,0.083l-0.132,0.085l-0.132,0.085l-0.131,0.085l-0.131,0.087l-0.13,0.087l-0.129,0.088l-0.129,0.089l-0.129,0.09l-0.127,0.09l-0.128,0.091l-0.126,0.092l-0.126,0.093l-0.126,0.093l-0.125,0.094l-0.124,0.095l-0.124,0.095l-0.123,0.096l-0.123,0.097l-0.122,0.098l-0.121,0.098l-0.121,0.099l-0.12,0.1l-0.119,0.101l-0.119,0.101l-0.119,0.102l-0.117,0.102l-0.118,0.104l-0.116,0.104l-0.116,0.104l-0.115,0.106l-0.115,0.106l-0.114,0.106l-0.113,0.108l-0.113,0.108l-0.112,0.109l-0.111,0.109l-0.111,0.11l-0.11,0.111l-0.109,0.111l-0.109,0.112l-0.108,0.113l-0.107,0.113l-0.107,0.114l-0.106,0.114l-0.105,0.116l-0.105,0.115l-0.104,0.117l-0.103,0.117l-0.103,0.118l-0.102,0.118l-0.101,0.119l-0.1,0.12l-0.1,0.12l-0.099,0.121l-0.099,0.121l-0.097,0.122l-0.097,0.122l-0.096,0.124l-0.096,0.123l-0.095,0.125l-0.094,0.125l-0.093,0.125l-0.093,0.126l-0.091,0.127l-0.091,0.127l-0.091,0.128l-0.089,0.128l-0.089,0.129l-0.088,0.13l-0.088,0.13l-0.086,0.13l-0.086,0.131l-0.085,0.132l-0.084,0.132l-0.084,0.133l-0.082,0.133l-0.082,0.134l-0.081,0.135l-0.081,0.134l-0.079,0.136l-0.079,0.136l-0.078,0.136l-0.077,0.137l-0.076,0.138l-0.076,0.138l-0.075,0.138l-0.074,0.139l-0.073,0.14l-0.072,0.14l-0.071,0.14l-0.071,0.141l-0.07,0.141l-0.069,0.142l-0.068,0.143l-0.067,0.143l-0.067,0.143l-0.065,0.144l-0.065,0.144l-0.064,0.145l-0.063,0.145l-0.062,0.146l-0.061,0.146l-0.061,0.146l-0.059,0.147l-0.059,0.148l-0.058,0.147l-0.057,0.149l-0.056,0.149l-0.055,0.149l-0.054,0.149l-0.054,0.15l-0.052,0.151l-0.052,0.151l-0.051,0.151l-0.049,0.152l-0.049,0.152l-0.048,0.152l-0.047,0.153l-0.047,0.153l-0.045,0.154l-0.044,0.154l-0.044,0.155l-0.042,0.154l-0.042,0.156l-0.04,0.155l-0.04,0.156l-0.039,0.157l-0.037,0.156l-0.037,0.158l-0.036,0.157l-0.035,0.158l-0.034,0.158l-0.033,0.159l-0.032,0.158l-0.031,0.16l-0.03,0.159l-0.029,0.16l-0.028,0.16l-0.027,0.161l-0.027,0.161l-0.025,0.161l-0.024,0.162l-0.023,0.162l-0.022,0.162l-0.022,0.162l-0.02,0.163l-0.019,0.163l-0.018,0.164l-0.017,0.163l-0.017,0.164l-0.015,0.165l-0.014,0.164l-0.013,0.165l-0.012,0.166l-0.011,0.165l-0.01,0.166l-0.009,0.166l-0.008,0.166l-0.007,0.167l-0.006,0.167l-0.004,0.167l-0.004,0.167l-0.003,0.168l-0.001,0.168l-0.001,0.168l0,34.084l-1.812,0l0,-34.295l0.001,-0.18l0.001,-0.179l0.003,-0.18l0.004,-0.179l0.005,-0.178l0.007,-0.179l0.007,-0.178l0.008,-0.178l0.01,-0.178l0.011,-0.177l0.012,-0.177l0.012,-0.177l0.014,-0.176l0.016,-0.176l0.016,-0.176l0.017,-0.175l0.018,-0.175l0.02,-0.175l0.02,-0.175l0.022,-0.174l0.023,-0.174l0.023,-0.173l0.025,-0.173l0.026,-0.173l0.027,-0.173l0.028,-0.172l0.029,-0.172l0.03,-0.171l0.031,-0.171l0.033,-0.171l0.033,-0.17l0.034,-0.17l0.035,-0.17l0.037,-0.169l0.037,-0.169l0.038,-0.168l0.04,-0.168l0.04,-0.168l0.042,-0.167l0.042,-0.167l0.043,-0.166l0.045,-0.166l0.045,-0.166l0.047,-0.165l0.047,-0.165l0.048,-0.164l0.05,-0.164l0.05,-0.164l0.052,-0.163l0.052,-0.163l0.053,-0.162l0.054,-0.162l0.056,-0.161l0.056,-0.161l0.057,-0.161l0.058,-0.16l0.059,-0.159l0.06,-0.159l0.061,-0.159l0.062,-0.158l0.063,-0.158l0.063,-0.157l0.065,-0.157l0.065,-0.156l0.067,-0.156l0.067,-0.155l0.069,-0.155l0.069,-0.154l0.07,-0.154l0.071,-0.153l0.072,-0.153l0.073,-0.153l0.074,-0.151l0.074,-0.152l0.076,-0.15l0.076,-0.151l0.078,-0.149l0.078,-0.15l0.079,-0.148l0.08,-0.148l0.081,-0.148l0.081,-0.147l0.083,-0.146l0.083,-0.146l0.084,-0.146l0.086,-0.145l0.085,-0.144l0.087,-0.144l0.088,-0.143l0.088,-0.142l0.09,-0.142l0.09,-0.142l0.091,-0.141l0.091,-0.14l0.093,-0.14l0.093,-0.139l0.095,-0.138l0.095,-0.138l0.095,-0.137l0.097,-0.137l0.097,-0.136l0.099,-0.136l0.099,-0.135l0.1,-0.134l0.1,-0.133l0.101,-0.133l0.103,-0.133l0.103,-0.132l0.103,-0.131l0.105,-0.13l0.105,-0.13l0.106,-0.129l0.107,-0.129l0.107,-0.128l0.108,-0.127l0.109,-0.126l0.11,-0.126l0.111,-0.126l0.111,-0.124l0.112,-0.124l0.112,-0.123l0.114,-0.123l0.114,-0.122l0.115,-0.121l0.115,-0.12l0.117,-0.12l0.117,-0.119l0.117,-0.119l0.119,-0.117l0.119,-0.117l0.12,-0.117l0.12,-0.115l0.121,-0.115l0.122,-0.114l0.123,-0.114l0.123,-0.112l0.124,-0.112l0.125,-0.111l0.125,-0.111l0.126,-0.11l0.126,-0.109l0.128,-0.108l0.127,-0.107l0.129,-0.107l0.129,-0.106l0.13,-0.105l0.13,-0.105l0.132,-0.104l0.131,-0.102l0.133,-0.103l0.133,-0.101l0.133,-0.101l0.135,-0.099l0.134,-0.099l0.136,-0.099l0.136,-0.097l0.137,-0.097l0.137,-0.095l0.138,-0.095l0.138,-0.095l0.14,-0.093l0.139,-0.093l0.14,-0.091l0.141,-0.091l0.142,-0.09l0.142,-0.09l0.142,-0.088l0.143,-0.088l0.144,-0.087l0.144,-0.086l0.145,-0.085l0.146,-0.084l0.146,-0.083l0.146,-0.083l0.147,-0.081l0.148,-0.081l0.148,-0.08l0.149,-0.079l0.149,-0.078l0.149,-0.078l0.151,-0.076l0.15,-0.076l0.152,-0.074l0.152,-0.074l0.152,-0.073l0.153,-0.072l0.153,-0.071l0.154,-0.07l0.154,-0.069l0.155,-0.069l0.155,-0.067l0.156,-0.067l0.156,-0.065l0.157,-0.065l0.157,-0.064l0.158,-0.062l0.158,-0.062l0.159,-0.061l0.159,-0.06l0.159,-0.059l0.16,-0.058l0.161,-0.057l0.161,-0.056l0.161,-0.056l0.162,-0.054l0.162,-0.053l0.163,-0.053l0.163,-0.051l0.164,-0.05l0.164,-0.05l0.164,-0.048l0.165,-0.047l0.165,-0.047l0.166,-0.045l0.166,-0.045l0.166,-0.043l0.167,-0.042l0.167,-0.042l0.168,-0.04l0.168,-0.04l0.168,-0.038l0.169,-0.037l0.169,-0.037l0.17,-0.035l0.17,-0.034l0.17,-0.033l0.171,-0.033l0.171,-0.031l0.171,-0.03l0.172,-0.029l0.172,-0.028l0.173,-0.027l0.173,-0.026l0.173,-0.025l0.173,-0.023l0.174,-0.023l0.174,-0.022l0.175,-0.02l0.175,-0.02l0.175,-0.018l0.175,-0.017l0.176,-0.016l0.176,-0.016l0.176,-0.014l0.177,-0.012l0.177,-0.012l0.177,-0.011l0.178,-0.01l0.178,-0.008l0.178,-0.007l0.179,-0.007l0.178,-0.005l0.179,-0.004l0.18,-0.002l0.179,-0.002l0.18,-0.001l0.18,0.001Z" style="fill:#e8573c;"/><rect x="33.382" y="20.064" width="2.469" height="19.67" style="fill:#e8573c;"/><rect x="6.235" y="68.941" width="56.762" height="2.477" style="fill:#d1c7c7;"/><rect x="6.235" y="68.941" width="56.762" height="2.477" style="fill:#e8573c;"/><path d="M19.021,50.637l3.01,-5.711" style="fill:none;"/><path d="M29.77,7.439l0,11.186l2.469,0l0,-11.186l-2.469,0Z" style="fill:#e8573c;"/><path d="M37.201,8.016l0,10.604l2.468,0l0,-10.604l-2.468,0Z" style="fill:#e8573c;"/><path d="M20.576,54.579l7.127,-14.101l5.762,11.523" style="fill:none;stroke:#e8573c;stroke-width:2.47px;"/><path d="M33.008,52.353l7.914,-16.119l8.336,17.299" style="fill:none;stroke:#e8573c;stroke-width:2.47px;stroke-linecap:round;"/><path d="M62.728,35.685l-11.382,0.084l-0.019,-2.469l11.383,-0.084l0.018,2.469Z" style="fill:#e8573c;"/><path d="M18.112,35.751l-11.382,0.084l-0.019,-2.469l11.383,-0.084l0.018,2.469Z" style="fill:#e8573c;"/><path d="M23.764,22.276l-1.733,1.758l-8.108,-7.989l1.733,-1.758l8.108,7.989Z" style="fill:#e8573c;"/><path d="M55.488,16.045l-8.108,7.989l-1.732,-1.758l8.108,-7.989l1.732,1.758Z" style="fill:#e8573c;"/><path d="M28.377,26.781l12.478,0" style="fill:none;stroke:#e8573c;stroke-width:1.98px;stroke-linecap:butt;"/><g><path d="M87.591,59.573l0,-5.462l7.602,0l0,-1.321l-7.602,0l0,-5.231l8.526,0l0,-1.342l-10.077,0l0,14.698l10.392,0l0,-1.342l-8.841,0Z" style="fill:#fff;fill-rule:nonzero;"/><path d="M107.352,49.871l-4.178,9.408l-4.136,-9.408l-1.553,0l4.892,11.044l1.532,0l4.913,-11.044l-1.47,0Z" style="fill:#fff;fill-rule:nonzero;"/><path d="M114.451,49.787c-1.743,0 -3.382,0.545 -4.493,1.489l0.671,1.114c0.902,-0.799 2.247,-1.303 3.675,-1.303c2.059,0 3.131,1.029 3.131,2.921l0,0.672l-3.509,0c-3.171,0 -4.261,1.426 -4.261,3.128c0,1.912 1.53,3.212 4.03,3.212c1.828,0 3.13,-0.692 3.803,-1.825l0,1.72l1.425,0l0,-6.844c0,-2.858 -1.614,-4.284 -4.472,-4.284Zm-0.525,10.059c-1.765,0 -2.794,-0.798 -2.794,-2.08c0,-1.135 0.693,-1.975 2.836,-1.975l3.467,0l0,1.807c-0.589,1.45 -1.828,2.248 -3.509,2.248Z" style="fill:#fff;fill-rule:nonzero;"/><path d="M128.606,49.787c-1.912,0 -3.404,0.776 -4.202,2.119l0,-2.035l-1.425,0l0,11.044l1.488,0l0,-5.795c0,-2.521 1.492,-3.991 3.865,-3.991c2.101,0 3.32,1.197 3.32,3.528l0,6.258l1.488,0l0,-6.405c0,-3.171 -1.845,-4.723 -4.534,-4.723Z" style="fill:#fff;fill-rule:nonzero;"/><path d="M146.037,49.871l0,2.121c-0.925,-1.45 -2.521,-2.205 -4.37,-2.205c-3.151,0 -5.542,2.161 -5.542,5.333c0,3.172 2.391,5.375 5.542,5.375c1.807,0 3.382,-0.734 4.307,-2.14l0,1.406c0,2.73 -1.282,4.012 -4.076,4.012c-1.701,0 -3.298,-0.567 -4.348,-1.513l-0.754,1.135c1.153,1.091 3.128,1.699 5.144,1.699c3.656,0 5.522,-1.72 5.522,-5.522l0,-9.701l-1.425,0Zm-4.223,9.303c-2.436,0 -4.18,-1.659 -4.18,-4.053c0,-2.396 1.744,-4.034 4.18,-4.034c2.437,0 4.202,1.638 4.202,4.033c0,2.395 -1.765,4.054 -4.202,4.054Z" style="fill:#fff;fill-rule:nonzero;"/><path d="M161.28,55.393c0,-3.319 -2.245,-5.606 -5.354,-5.606c-3.109,0 -5.395,2.329 -5.395,5.606c0,3.277 2.349,5.627 5.795,5.627c1.743,0 3.277,-0.629 4.262,-1.804l-0.838,-0.967c-0.841,0.967 -2.038,1.45 -3.382,1.45c-2.416,0 -4.181,-1.534 -4.349,-3.845l9.24,0c0,-0.168 0.021,-0.336 0.021,-0.461Zm-5.354,-4.327c2.164,0 3.74,1.513 3.929,3.677l-7.836,0c0.189,-2.164 1.765,-3.677 3.907,-3.677Z" style="fill:#fff;fill-rule:nonzero;"/><rect x="164.328" y="45.335" width="1.488" height="15.579" style="fill:#fff;fill-rule:nonzero;"/><path d="M170.731,47.454c0.63,0 1.091,-0.483 1.091,-1.091c0,-0.566 -0.482,-1.028 -1.091,-1.028c-0.608,0 -1.09,0.483 -1.09,1.049c0,0.587 0.482,1.07 1.09,1.07Zm-0.754,13.461l1.488,0l0,-11.044l-1.488,0l0,11.044Z" style="fill:#fff;fill-rule:nonzero;"/><path d="M180.201,61.02c1.869,0 3.444,-0.755 4.326,-2.182l-1.113,-0.756c-0.756,1.113 -1.932,1.617 -3.213,1.617c-2.415,0 -4.179,-1.701 -4.179,-4.306c0,-2.584 1.764,-4.306 4.179,-4.306c1.281,0 2.457,0.525 3.213,1.638l1.113,-0.756c-0.882,-1.448 -2.457,-2.182 -4.326,-2.182c-3.297,0 -5.688,2.308 -5.688,5.606c0,3.298 2.391,5.627 5.688,5.627Z" style="fill:#fff;fill-rule:nonzero;"/><path d="M195.825,60.915l1.827,0l-5.166,-6.53l4.725,-4.514l-1.848,0l-6.594,6.026l0,-10.562l-1.488,0l0,15.58l1.488,0l0,-3.15l2.604,-2.393l4.452,5.543Z" style="fill:#fff;fill-rule:nonzero;"/><path d="M206.158,45.566l-1.995,0l-2.876,2.602l1.469,0l3.402,-2.602Zm0.986,4.305l-4.157,9.387l-4.157,-9.387l-1.553,0l4.934,11.025l-0.483,1.071c-0.63,1.386 -1.302,1.848 -2.289,1.848c-0.798,0 -1.47,-0.294 -2.015,-0.84l-0.693,1.113c0.672,0.67 1.658,1.006 2.687,1.006c1.575,0 2.751,-0.692 3.674,-2.854l5.522,-12.369l-1.47,0Z" style="fill:#fff;fill-rule:nonzero;"/><path d="M219.178,61.02c2.879,0 4.556,-1.237 4.556,-3.148c0,-4.241 -7.161,-1.994 -7.161,-4.977c0,-1.051 0.882,-1.829 2.878,-1.829c1.135,0 2.29,0.273 3.256,0.946l0.65,-1.198c-0.923,-0.629 -2.477,-1.027 -3.906,-1.027c-2.815,0 -4.366,1.342 -4.366,3.15c0,4.368 7.161,2.102 7.161,4.977c0,1.092 -0.862,1.806 -2.963,1.806c-1.554,0 -3.045,-0.546 -3.926,-1.239l-0.671,1.176c0.902,0.776 2.664,1.363 4.492,1.363Z" style="fill:#fff;fill-rule:nonzero;"/><path d="M232.177,49.787c-1.764,0 -3.277,0.755 -4.201,2.182l0,-6.634l-1.488,0l0,15.58l1.425,0l0,-2.184c0.903,1.492 2.437,2.289 4.264,2.289c3.151,0 5.501,-2.287 5.501,-5.627c0,-3.34 -2.35,-5.606 -5.501,-5.606Zm-0.105,9.912c-2.352,0 -4.117,-1.722 -4.117,-4.306c0,-2.584 1.765,-4.306 4.117,-4.306c2.332,0 4.118,1.722 4.118,4.306c0,2.584 -1.786,4.306 -4.118,4.306Z" style="fill:#fff;fill-rule:nonzero;"/><path d="M245.239,61.02c3.235,0 5.606,-2.35 5.606,-5.627c0,-3.277 -2.371,-5.606 -5.606,-5.606c-3.235,0 -5.626,2.329 -5.626,5.606c0,3.277 2.391,5.627 5.626,5.627Zm0,-1.321c-2.352,0 -4.117,-1.722 -4.117,-4.306c0,-2.584 1.765,-4.306 4.117,-4.306c2.353,0 4.097,1.722 4.097,4.306c0,2.584 -1.744,4.306 -4.097,4.306Z" style="fill:#fff;fill-rule:nonzero;"/><path d="M255.318,52.032l0,-2.161l-1.425,0l0,11.044l1.488,0l0,-5.627c0,-2.605 1.407,-4.075 3.717,-4.075c0.105,0 0.231,0.021 0.357,0.021l0,-1.447c-2.037,0 -3.444,0.776 -4.137,2.245Z" style="fill:#fff;fill-rule:nonzero;"/></g><g><path d="M100.422,38.498l3.393,0l-9.222,-11.163l8.671,-9.133l-3.306,0l-11.02,11.337l0,-11.337l-2.896,0l0,20.296l2.896,0l0,-5.248l3.712,-3.769l7.772,9.017Z" style="fill:#fff;fill-rule:nonzero;"/><path d="M111.705,22.987c-2.466,0 -4.757,0.695 -6.35,1.969l1.159,2.089c1.187,-1.016 3.044,-1.655 4.872,-1.655c2.756,0 4.12,1.364 4.12,3.715l0,0.552l-4.41,0c-4.582,0 -6.175,2.026 -6.175,4.493c0,2.669 2.201,4.522 5.682,4.522c2.408,0 4.12,-0.81 5.048,-2.2l0,2.026l2.635,0l0,-9.277c0,-4.207 -2.375,-6.234 -6.581,-6.234Zm-0.638,13.543c-2.118,0 -3.395,-0.958 -3.395,-2.496c0,-1.306 0.784,-2.38 3.54,-2.38l4.294,0l0,2.148c-0.696,1.77 -2.35,2.728 -4.439,2.728Z" style="fill:#fff;fill-rule:nonzero;"/><rect x="122.466" y="29.338" width="7.797" height="2.403" style="fill:#fff;fill-rule:nonzero;"/><path d="M134.965,38.498l8.553,0c6.526,0 10.96,-4.115 10.96,-10.148c0,-6.034 -4.434,-10.148 -10.96,-10.148l-8.553,0l0,20.296Zm2.896,-2.519l0,-15.258l5.483,0c5.018,0 8.238,3.075 8.238,7.629c0,4.554 -3.22,7.629 -8.238,7.629l-5.483,0Z" style="fill:#fff;fill-rule:nonzero;"/><path d="M169.385,23.132l-5.393,12.325l-5.277,-12.325l-2.899,0l6.726,15.366l2.842,0l6.726,-15.366l-2.725,0Z" style="fill:#fff;fill-rule:nonzero;"/><path d="M180.87,38.672c4.613,0 7.973,-3.273 7.973,-7.857c0,-4.584 -3.36,-7.828 -7.973,-7.828c-4.613,0 -8.002,3.244 -8.002,7.828c0,4.584 3.389,7.857 8.002,7.857Zm0,-2.432c-2.959,0 -5.193,-2.147 -5.193,-5.425c0,-3.278 2.234,-5.396 5.193,-5.396c2.959,0 5.164,2.118 5.164,5.396c0,3.278 -2.205,5.425 -5.164,5.425Z" style="fill:#fff;fill-rule:nonzero;"/><path d="M194.239,20.17c1.101,0 1.883,-0.811 1.883,-1.854c0,-0.985 -0.811,-1.767 -1.883,-1.767c-1.072,0 -1.883,0.811 -1.883,1.825c0,1.014 0.811,1.796 1.883,1.796Zm-3.507,24.128c3.16,0 4.897,-1.969 4.897,-5.1l0,-16.066l-2.78,0l0,16.124c0,1.769 -0.812,2.697 -2.291,2.697c-0.899,0 -1.711,-0.261 -2.262,-0.725l-0.899,2.144c0.783,0.637 2.059,0.926 3.335,0.926Z" style="fill:#fff;fill-rule:nonzero;"/><path d="M212.681,38.498l3.422,0l-7.105,-9.017l6.467,-6.349l-3.364,0l-8.381,7.654l0,-13.802l-2.78,0l0,21.514l2.78,0l0,-4.204l3.19,-2.957l5.771,7.161Z" style="fill:#fff;fill-rule:nonzero;"/><path d="M224.109,22.987c-2.466,0 -4.757,0.695 -6.35,1.969l1.159,2.089c1.187,-1.016 3.044,-1.655 4.872,-1.655c2.756,0 4.12,1.364 4.12,3.715l0,0.552l-4.41,0c-4.582,0 -6.175,2.026 -6.175,4.493c0,2.669 2.201,4.522 5.682,4.522c2.408,0 4.12,-0.81 5.048,-2.2l0,2.026l2.635,0l0,-9.277c0,-4.207 -2.375,-6.234 -6.581,-6.234Zm-0.638,13.543c-2.118,0 -3.395,-0.958 -3.395,-2.496c0,-1.306 0.784,-2.38 3.54,-2.38l4.294,0l0,2.148c-0.696,1.77 -2.35,2.728 -4.439,2.728Z" style="fill:#fff;fill-rule:nonzero;"/></g><path d="M62.391,48.053l-1.464,0.128l-0.227,0.022l-0.226,0.024l-0.224,0.027l-0.222,0.028l-0.221,0.03l-0.219,0.032l-0.217,0.033l-0.215,0.036l-0.213,0.037l-0.211,0.038l-0.209,0.04l-0.206,0.041l-0.205,0.042l-0.202,0.043l-0.199,0.045l-0.197,0.045l-0.195,0.047l-0.192,0.047l-0.189,0.048l-0.186,0.049l-0.184,0.049l-0.18,0.05l-0.178,0.05l-0.174,0.051l-0.172,0.051l-0.168,0.051l-0.165,0.051l-0.161,0.051l-0.158,0.051l-0.154,0.051l-0.151,0.051l-0.148,0.05l-0.143,0.05l-0.14,0.05l-0.136,0.049l-0.132,0.048l-0.126,0.047l-0.245,0.094l-0.227,0.089l-0.21,0.084l-0.191,0.079l-0.173,0.073l-0.154,0.067l-0.134,0.06l-0.113,0.051l-0.092,0.043l-0.125,0.059l-1.147,0.564l-1.089,-2.216l1.162,-0.571l0.15,-0.072l0.112,-0.051l0.132,-0.06l0.152,-0.068l0.173,-0.075l0.192,-0.081l0.212,-0.088l0.231,-0.093l0.248,-0.097l0.265,-0.101l0.141,-0.053l0.144,-0.052l0.149,-0.054l0.152,-0.054l0.156,-0.054l0.16,-0.055l0.164,-0.055l0.168,-0.056l0.172,-0.055l0.176,-0.056l0.179,-0.056l0.182,-0.055l0.187,-0.055l0.189,-0.055l0.193,-0.055l0.197,-0.054l0.199,-0.054l0.203,-0.053l0.206,-0.052l0.209,-0.052l0.212,-0.05l0.215,-0.05l0.218,-0.049l0.221,-0.047l0.223,-0.046l0.226,-0.045l0.229,-0.044l0.231,-0.042l0.234,-0.04l0.236,-0.039l0.239,-0.037l0.241,-0.035l0.243,-0.033l0.246,-0.031l0.247,-0.029l0.25,-0.027l0.251,-0.025l1.477,-0.129l0.215,2.46Z" style="fill:#e8573c;"/><path d="M8.683,45.316l0.133,0.001l0.133,0.003l0.132,0.003l0.132,0.004l0.132,0.006l0.131,0.006l0.131,0.007l0.13,0.008l0.131,0.009l0.129,0.01l0.13,0.01l0.129,0.011l0.128,0.013l0.13,0.013l0.253,0.027l0.252,0.031l0.251,0.034l0.249,0.037l0.246,0.038l0.244,0.042l0.241,0.043l0.239,0.046l0.237,0.047l0.234,0.05l0.23,0.051l0.228,0.053l0.225,0.054l0.222,0.055l0.219,0.057l0.215,0.058l0.212,0.059l0.209,0.059l0.205,0.061l0.201,0.061l0.197,0.061l0.194,0.062l0.189,0.062l0.186,0.062l0.181,0.061l0.177,0.062l0.173,0.062l0.168,0.061l0.163,0.06l0.159,0.06l0.154,0.059l0.149,0.059l0.144,0.057l0.139,0.056l0.135,0.055l0.25,0.105l0.229,0.099l0.206,0.091l0.183,0.083l0.158,0.073l0.132,0.063l0.106,0.052l0.08,0.039l1.164,0.59l-1.115,2.202l-1.154,-0.584l-0.061,-0.03l-0.088,-0.043l-0.114,-0.054l-0.138,-0.064l-0.162,-0.074l-0.185,-0.082l-0.207,-0.089l-0.23,-0.096l-0.12,-0.049l-0.126,-0.051l-0.131,-0.052l-0.136,-0.053l-0.141,-0.054l-0.145,-0.055l-0.149,-0.055l-0.154,-0.056l-0.157,-0.056l-0.162,-0.057l-0.166,-0.057l-0.169,-0.056l-0.173,-0.057l-0.177,-0.056l-0.18,-0.056l-0.183,-0.056l-0.187,-0.055l-0.19,-0.054l-0.193,-0.053l-0.195,-0.053l-0.198,-0.051l-0.201,-0.05l-0.204,-0.049l-0.206,-0.048l-0.208,-0.046l-0.21,-0.045l-0.212,-0.042l-0.215,-0.041l-0.216,-0.039l-0.217,-0.037l-0.22,-0.035l-0.22,-0.032l-0.223,-0.03l-0.223,-0.027l-0.226,-0.025l-0.111,-0.011l-0.113,-0.011l-0.113,-0.01l-0.113,-0.009l-0.113,-0.008l-0.114,-0.008l-0.113,-0.007l-0.114,-0.006l-0.114,-0.006l-0.114,-0.004l-0.114,-0.004l-0.115,-0.003l-0.114,-0.002l-0.114,-0.001l-0.115,-0.001l-0.114,0.001l-0.115,0.001l-1.353,0.027l-0.05,-2.468l1.364,-0.027l0.134,-0.002l0.133,-0.001l0.133,0.001Z" style="fill:#e8573c;"/><path d="M38.644,51.286l0.269,0.002l0.267,0.003l0.266,0.004l0.265,0.005l0.263,0.007l0.263,0.008l0.261,0.009l0.26,0.01l0.258,0.011l0.257,0.013l0.256,0.013l0.255,0.015l0.253,0.016l0.252,0.016l0.251,0.018l0.25,0.019l0.248,0.02l0.247,0.021l0.245,0.022l0.244,0.022l0.243,0.024l0.242,0.025l0.24,0.025l0.239,0.027l0.237,0.027l0.236,0.028l0.235,0.029l0.233,0.03l0.232,0.031l0.23,0.032l0.23,0.032l0.227,0.033l0.227,0.034l0.224,0.034l0.224,0.036l0.222,0.036l0.221,0.036l0.219,0.038l0.217,0.038l0.217,0.038l0.214,0.04l0.214,0.039l0.212,0.041l0.21,0.041l0.209,0.042l0.207,0.042l0.206,0.042l0.205,0.044l0.202,0.043l0.202,0.044l0.2,0.045l0.199,0.045l0.391,0.092l0.386,0.093l0.38,0.094l0.373,0.096l0.367,0.097l0.361,0.098l0.354,0.099l0.348,0.1l0.341,0.101l0.335,0.101l0.329,0.102l0.321,0.102l0.315,0.102l0.308,0.102l0.301,0.102l0.295,0.102l0.288,0.102l0.28,0.101l0.274,0.1l0.267,0.1l0.259,0.099l0.253,0.098l0.245,0.097l0.239,0.096l0.23,0.095l0.224,0.093l0.216,0.091l0.209,0.09l0.202,0.087l0.194,0.086l0.186,0.084l0.179,0.081l0.171,0.079l0.164,0.077l0.155,0.074l0.149,0.071l0.141,0.069l0.255,0.127l0.225,0.115l0.193,0.1l0.161,0.086l0.127,0.069l0.095,0.053l1.145,0.655l-1.225,2.143l-1.134,-0.648l-0.074,-0.041l-0.107,-0.059l-0.14,-0.074l-0.172,-0.09l-0.203,-0.103l-0.236,-0.118l-0.128,-0.062l-0.136,-0.066l-0.144,-0.068l-0.152,-0.071l-0.159,-0.074l-0.167,-0.076l-0.174,-0.078l-0.182,-0.08l-0.189,-0.082l-0.196,-0.084l-0.203,-0.086l-0.211,-0.088l-0.217,-0.089l-0.225,-0.09l-0.232,-0.092l-0.238,-0.093l-0.246,-0.093l-0.253,-0.095l-0.259,-0.095l-0.266,-0.096l-0.273,-0.096l-0.28,-0.097l-0.286,-0.097l-0.293,-0.097l-0.299,-0.097l-0.306,-0.097l-0.312,-0.097l-0.319,-0.096l-0.325,-0.096l-0.331,-0.095l-0.338,-0.095l-0.343,-0.093l-0.35,-0.093l-0.356,-0.091l-0.362,-0.09l-0.369,-0.089l-0.375,-0.088l-0.188,-0.042l-0.191,-0.043l-0.192,-0.042l-0.193,-0.042l-0.196,-0.041l-0.196,-0.041l-0.198,-0.04l-0.2,-0.04l-0.2,-0.039l-0.203,-0.039l-0.203,-0.038l-0.206,-0.037l-0.206,-0.037l-0.208,-0.036l-0.209,-0.036l-0.211,-0.035l-0.212,-0.034l-0.214,-0.034l-0.214,-0.033l-0.217,-0.032l-0.217,-0.032l-0.219,-0.031l-0.22,-0.03l-0.222,-0.029l-0.223,-0.029l-0.224,-0.028l-0.226,-0.027l-0.227,-0.026l-0.228,-0.025l-0.229,-0.025l-0.231,-0.023l-0.232,-0.023l-0.234,-0.022l-0.234,-0.02l-0.236,-0.02l-0.238,-0.019l-0.238,-0.018l-0.24,-0.017l-0.241,-0.016l-0.242,-0.015l-0.244,-0.014l-0.244,-0.013l-0.246,-0.012l-0.248,-0.011l-0.248,-0.01l-0.25,-0.008l-0.251,-0.008l-0.252,-0.006l-0.253,-0.005l-0.254,-0.004l-0.256,-0.003l-0.257,-0.002l-0.258,0l-0.259,0l-0.26,0.002l-0.262,0.004l-0.262,0.004l-0.264,0.006l-0.265,0.007l-0.266,0.009l-0.267,0.01l-0.268,0.011l-0.27,0.012l-0.27,0.014l-0.272,0.016l-0.272,0.016l-0.274,0.018l-0.275,0.02l-0.276,0.021l-0.277,0.023l-0.278,0.024l-0.279,0.025l-0.281,0.027l-0.281,0.029l-0.282,0.03l-0.284,0.032l-0.284,0.033l-0.286,0.035l-0.286,0.037l-0.288,0.038l-0.288,0.04l-0.29,0.041l-0.29,0.043l-0.292,0.045l-0.292,0.047l-0.294,0.048l-0.294,0.05l-0.296,0.052l-0.296,0.054l-0.298,0.055l-0.298,0.057l-0.3,0.059l-0.3,0.061l-0.301,0.063l-0.302,0.064l-0.303,0.067l-0.305,0.068l-0.305,0.07l-0.305,0.073l-0.307,0.074l-0.308,0.076l-0.309,0.078l-0.309,0.08l-0.311,0.082l-0.311,0.084l-0.312,0.086l-0.313,0.089l-0.314,0.09l-0.315,0.092l-0.315,0.095l-0.317,0.096l-0.317,0.099l-0.319,0.101l-0.319,0.103l-0.319,0.105l-0.321,0.108l-0.322,0.11l-0.322,0.111l-0.323,0.115l-0.324,0.116l-0.325,0.119l-0.325,0.121l-0.327,0.123l-0.327,0.126l-0.328,0.128l-0.328,0.13l-0.33,0.133l-0.33,0.135l-0.331,0.137l-0.332,0.14l-0.332,0.143l-0.333,0.144l-0.334,0.148l-0.335,0.15l-0.335,0.152l-0.337,0.155l-0.336,0.157l-0.338,0.16l-0.338,0.163l-0.339,0.165l-0.34,0.167l-0.34,0.171l-0.341,0.173l-0.342,0.175l-0.342,0.178l-0.343,0.181l-0.344,0.184l-0.344,0.186l-0.345,0.189l-1.428,0.793l-1.198,-2.159l1.434,-0.796l0.356,-0.195l0.356,-0.193l0.355,-0.189l0.355,-0.187l0.354,-0.185l0.353,-0.181l0.353,-0.179l0.352,-0.177l0.352,-0.173l0.351,-0.171l0.35,-0.168l0.35,-0.166l0.348,-0.163l0.349,-0.16l0.347,-0.158l0.347,-0.155l0.346,-0.153l0.346,-0.15l0.344,-0.148l0.344,-0.145l0.344,-0.143l0.342,-0.14l0.342,-0.138l0.341,-0.135l0.341,-0.133l0.339,-0.13l0.339,-0.128l0.338,-0.126l0.338,-0.123l0.336,-0.121l0.336,-0.119l0.335,-0.116l0.334,-0.114l0.333,-0.112l0.333,-0.109l0.332,-0.107l0.331,-0.105l0.33,-0.103l0.329,-0.101l0.329,-0.098l0.327,-0.096l0.327,-0.094l0.326,-0.092l0.325,-0.089l0.324,-0.088l0.323,-0.085l0.322,-0.084l0.322,-0.081l0.32,-0.08l0.32,-0.077l0.319,-0.075l0.318,-0.073l0.316,-0.071l0.316,-0.07l0.315,-0.067l0.314,-0.065l0.314,-0.064l0.312,-0.061l0.311,-0.06l0.31,-0.058l0.309,-0.056l0.309,-0.054l0.307,-0.052l0.306,-0.05l0.305,-0.049l0.304,-0.047l0.304,-0.045l0.302,-0.043l0.301,-0.042l0.3,-0.04l0.299,-0.038l0.298,-0.036l0.297,-0.035l0.296,-0.033l0.295,-0.032l0.294,-0.03l0.292,-0.028l0.292,-0.026l0.29,-0.026l0.29,-0.023l0.288,-0.022l0.287,-0.021l0.286,-0.019l0.285,-0.017l0.284,-0.016l0.283,-0.015l0.281,-0.013l0.28,-0.012l0.28,-0.01l0.278,-0.009l0.276,-0.007l0.276,-0.006l0.274,-0.005l0.274,-0.003l0.272,-0.003l0.271,0l0.269,0Z" style="fill:#e8573c;"/><path d="M51.891,55.493l0.263,0.003l0.263,0.005l0.265,0.007l0.265,0.008l0.267,0.009l0.268,0.012l0.269,0.013l0.269,0.015l0.272,0.016l0.272,0.019l0.273,0.02l0.274,0.021l0.275,0.024l0.277,0.025l0.277,0.028l0.279,0.029l0.279,0.031l0.281,0.032l0.282,0.035l0.283,0.037l0.283,0.038l0.285,0.04l0.286,0.043l0.287,0.044l0.288,0.046l0.29,0.048l0.29,0.05l0.291,0.052l0.292,0.054l0.294,0.057l0.294,0.058l0.295,0.06l0.297,0.062l1.5,0.325l-0.521,2.413l-1.494,-0.323l-0.282,-0.059l-0.281,-0.058l-0.28,-0.055l-0.278,-0.053l-0.278,-0.052l-0.277,-0.049l-0.275,-0.048l-0.275,-0.045l-0.273,-0.044l-0.272,-0.042l-0.271,-0.04l-0.27,-0.038l-0.269,-0.037l-0.268,-0.034l-0.267,-0.033l-0.265,-0.031l-0.265,-0.029l-0.264,-0.028l-0.262,-0.026l-0.261,-0.024l-0.261,-0.022l-0.259,-0.021l-0.258,-0.019l-0.257,-0.017l-0.256,-0.016l-0.254,-0.014l-0.254,-0.012l-0.253,-0.011l-0.251,-0.009l-0.251,-0.007l-0.249,-0.006l-0.248,-0.005l-0.248,-0.003l-0.246,-0.001l-0.245,0l-0.244,0.001l-0.243,0.003l-0.241,0.005l-0.241,0.006l-0.24,0.008l-0.238,0.008l-0.238,0.011l-0.236,0.011l-0.235,0.013l-0.235,0.015l-0.233,0.016l-0.232,0.017l-0.231,0.018l-0.23,0.02l-0.228,0.021l-0.228,0.023l-0.227,0.023l-0.225,0.025l-0.225,0.026l-0.223,0.028l-0.223,0.028l-0.221,0.03l-0.22,0.031l-0.219,0.032l-0.218,0.034l-0.217,0.034l-0.216,0.036l-0.215,0.037l-0.214,0.038l-0.212,0.039l-0.212,0.04l-0.211,0.041l-0.209,0.042l-0.208,0.043l-0.208,0.045l-0.206,0.045l-0.205,0.046l-0.204,0.047l-0.203,0.049l-0.202,0.049l-0.201,0.05l-0.199,0.051l-0.199,0.052l-0.198,0.053l-0.196,0.054l-0.196,0.055l-0.194,0.055l-0.193,0.057l-0.192,0.057l-0.192,0.058l-0.19,0.059l-0.189,0.06l-0.187,0.06l-0.187,0.061l-0.186,0.062l-0.185,0.063l-0.183,0.064l-0.183,0.064l-0.181,0.065l-0.18,0.065l-0.18,0.067l-0.178,0.066l-0.177,0.068l-0.176,0.068l-0.175,0.069l-0.174,0.07l-0.172,0.07l-0.172,0.07l-0.171,0.071l-0.169,0.072l-0.169,0.073l-0.167,0.072l-0.166,0.074l-0.165,0.074l-0.164,0.074l-0.163,0.075l-0.162,0.075l-0.161,0.076l-0.16,0.076l-0.158,0.076l-0.158,0.077l-0.156,0.078l-0.156,0.077l-0.154,0.079l-0.153,0.078l-0.152,0.079l-0.151,0.079l-0.15,0.079l-0.149,0.08l-0.148,0.08l-0.146,0.08l-0.146,0.081l-0.144,0.081l-0.142,0.08l-0.285,0.163l-0.279,0.164l-0.274,0.164l-0.27,0.164l-0.266,0.165l-0.261,0.166l-0.257,0.165l-0.252,0.166l-0.248,0.165l-0.244,0.166l-0.239,0.165l-0.235,0.165l-0.23,0.164l-0.225,0.164l-0.222,0.163l-0.216,0.162l-0.212,0.162l-0.208,0.16l-0.203,0.159l-0.199,0.159l-0.194,0.156l-0.19,0.155l-0.185,0.154l-0.181,0.152l-0.176,0.15l-0.171,0.149l-0.167,0.146l-0.163,0.144l-0.158,0.142l-0.153,0.14l-0.149,0.137l-0.144,0.134l-0.139,0.132l-0.135,0.129l-0.131,0.126l-0.125,0.123l-0.121,0.12l-0.117,0.117l-0.112,0.113l-0.107,0.11l-0.103,0.106l-0.098,0.103l-0.092,0.098l-0.174,0.187l-0.154,0.169l-0.135,0.151l-0.117,0.134l-0.098,0.114l-0.079,0.093l-0.06,0.073l-0.041,0.05l-0.802,1.01l-1.933,-1.536l0.81,-1.02l0.056,-0.068l0.074,-0.09l0.094,-0.112l0.113,-0.131l0.133,-0.152l0.151,-0.17l0.172,-0.188l0.189,-0.203l0.103,-0.109l0.107,-0.113l0.112,-0.116l0.117,-0.119l0.122,-0.124l0.126,-0.126l0.131,-0.13l0.136,-0.133l0.141,-0.137l0.146,-0.139l0.15,-0.142l0.155,-0.145l0.16,-0.147l0.165,-0.15l0.17,-0.152l0.174,-0.155l0.179,-0.157l0.184,-0.159l0.188,-0.161l0.194,-0.162l0.198,-0.165l0.203,-0.166l0.207,-0.167l0.213,-0.169l0.217,-0.17l0.222,-0.172l0.226,-0.172l0.232,-0.174l0.236,-0.174l0.241,-0.175l0.245,-0.175l0.25,-0.176l0.256,-0.176l0.259,-0.177l0.265,-0.176l0.269,-0.177l0.274,-0.176l0.279,-0.177l0.283,-0.176l0.288,-0.175l0.293,-0.175l0.298,-0.174l0.301,-0.173l0.154,-0.087l0.154,-0.087l0.155,-0.086l0.156,-0.085l0.158,-0.086l0.159,-0.085l0.16,-0.084l0.161,-0.085l0.162,-0.084l0.164,-0.084l0.164,-0.083l0.166,-0.083l0.167,-0.082l0.168,-0.083l0.169,-0.081l0.171,-0.082l0.172,-0.08l0.172,-0.081l0.174,-0.08l0.175,-0.079l0.177,-0.079l0.177,-0.078l0.179,-0.078l0.18,-0.077l0.181,-0.077l0.182,-0.076l0.183,-0.075l0.184,-0.075l0.186,-0.074l0.187,-0.073l0.188,-0.073l0.189,-0.072l0.19,-0.072l0.192,-0.071l0.192,-0.07l0.194,-0.069l0.195,-0.069l0.196,-0.067l0.197,-0.067l0.198,-0.067l0.2,-0.065l0.2,-0.065l0.202,-0.063l0.203,-0.063l0.204,-0.062l0.205,-0.061l0.207,-0.061l0.207,-0.059l0.209,-0.058l0.21,-0.058l0.211,-0.056l0.212,-0.056l0.213,-0.055l0.215,-0.053l0.215,-0.053l0.217,-0.051l0.218,-0.051l0.219,-0.049l0.22,-0.048l0.221,-0.048l0.222,-0.046l0.224,-0.045l0.224,-0.044l0.226,-0.042l0.227,-0.042l0.228,-0.04l0.229,-0.04l0.23,-0.038l0.232,-0.037l0.232,-0.035l0.234,-0.034l0.235,-0.034l0.236,-0.031l0.237,-0.031l0.238,-0.029l0.239,-0.028l0.24,-0.027l0.242,-0.025l0.242,-0.024l0.244,-0.022l0.245,-0.021l0.246,-0.02l0.247,-0.018l0.248,-0.017l0.249,-0.015l0.25,-0.014l0.252,-0.013l0.252,-0.011l0.254,-0.009l0.255,-0.008l0.256,-0.006l0.257,-0.005l0.258,-0.003l0.259,-0.002l0.26,0l0.261,0.001Z" style="fill:#e8573c;"/></g><path d="M23.107,46.856c0.343,0.337 0.701,0.659 1.073,0.965l-1.136,2.277c-0.38,-0.295 -0.749,-0.604 -1.106,-0.927l1.169,-2.315Zm23.94,-0.747l1.159,2.392c-0.304,0.305 -0.619,0.599 -0.943,0.882l-1.052,-2.409c0.289,-0.278 0.568,-0.567 0.836,-0.865Zm-26.515,1.653c-3.035,-3.378 -4.883,-7.845 -4.883,-12.739c0,-9.685 7.235,-17.693 16.59,-18.911l0,2.513c-7.977,1.199 -14.102,8.088 -14.102,16.398c0,3.915 1.36,7.515 3.632,10.353l-1.237,2.386Zm27.793,-3.262c1.876,-2.687 2.977,-5.954 2.977,-9.477c0,-8.31 -6.124,-15.199 -14.101,-16.398l0,-2.513c9.355,1.218 16.59,9.226 16.59,18.911c0,4.53 -1.584,8.694 -4.227,11.967l-1.239,-2.49Z" style="fill:#e8573c;"/></g></g></g></svg>