<?xml version="1.0" encoding="UTF-8" standalone="no"?>
<svg
   width="100%"
   height="100%"
   viewBox="0 0 260 77"
   version="1.1"
   xml:space="preserve"
   style="fill-rule:evenodd;clip-rule:evenodd;stroke-linecap:square;stroke-linejoin:round;stroke-miterlimit:1.5;"
   id="svg44"
   sodipodi:docname="ka-dvojka-white.svg"
   inkscape:version="1.4.2 (ebf0e940d0, 2025-05-08)"
   xmlns:inkscape="http://www.inkscape.org/namespaces/inkscape"
   xmlns:sodipodi="http://sodipodi.sourceforge.net/DTD/sodipodi-0.dtd"
   xmlns="http://www.w3.org/2000/svg"
   xmlns:svg="http://www.w3.org/2000/svg"><defs
     id="defs44" /><sodipodi:namedview
     id="namedview44"
     pagecolor="#505050"
     bordercolor="#eeeeee"
     borderopacity="1"
     inkscape:showpageshadow="0"
     inkscape:pageopacity="0"
     inkscape:pagecheckerboard="0"
     inkscape:deskcolor="#505050"
     inkscape:zoom="3.4519231"
     inkscape:cx="67.788301"
     inkscape:cy="42.440111"
     inkscape:window-width="1920"
     inkscape:window-height="1008"
     inkscape:window-x="0"
     inkscape:window-y="0"
     inkscape:window-maximized="1"
     inkscape:current-layer="svg44" /><path
     d="M 68.687,76.531 H 0.545 V 34.54 c 0,-18.804 15.267,-34.071 34.071,-34.071 18.804,0 34.071,15.267 34.071,34.071 z M 66.469,74.054 V 34.798 C 66.469,17.218 52.196,2.946 34.616,2.946 17.036,2.946 2.764,17.218 2.764,34.798 v 39.256 z"
     style="fill:#e8573c"
     id="path1" /><path
     d="M 61.149,70.179 V 35.417 C 61.149,20.773 49.26,8.884 34.616,8.884 19.972,8.884 8.083,20.773 8.083,35.417 V 70.179 H 6.235 V 35.202 c 0,-15.664 12.717,-28.381 28.381,-28.381 15.664,0 28.381,12.717 28.381,28.381 v 34.977 z"
     style="fill:#e8573c"
     id="path2" /><path
     d="m 34.8,6.822 0.183,0.001 0.183,0.003 0.182,0.004 0.182,0.005 0.182,0.007 0.182,0.007 0.182,0.009 0.181,0.01 0.181,0.011 0.18,0.012 0.18,0.013 0.18,0.014 0.18,0.015 0.179,0.017 0.179,0.018 0.179,0.018 0.178,0.02 0.178,0.021 0.178,0.022 0.177,0.023 0.177,0.025 0.177,0.025 0.176,0.026 0.176,0.028 0.175,0.028 0.175,0.03 0.175,0.031 0.175,0.031 0.174,0.033 0.173,0.034 0.174,0.035 0.173,0.036 0.172,0.037 0.172,0.038 0.172,0.039 0.172,0.04 0.171,0.042 0.17,0.042 0.17,0.043 0.17,0.044 0.17,0.046 0.168,0.046 0.169,0.047 0.168,0.049 0.168,0.049 0.167,0.05 0.167,0.052 0.166,0.052 0.166,0.054 0.166,0.054 0.165,0.055 0.164,0.057 0.164,0.057 0.164,0.058 0.163,0.059 0.163,0.06 0.162,0.062 0.162,0.062 0.161,0.063 0.161,0.064 0.161,0.065 0.159,0.066 0.16,0.067 0.159,0.068 0.158,0.068 0.158,0.07 0.157,0.071 0.157,0.071 0.157,0.073 0.155,0.073 0.156,0.074 0.155,0.076 0.154,0.076 0.154,0.077 0.153,0.078 0.153,0.079 0.152,0.079 0.151,0.081 0.151,0.081 0.151,0.083 0.15,0.083 0.149,0.084 0.149,0.085 0.148,0.086 0.148,0.087 0.147,0.088 0.147,0.088 0.146,0.09 0.145,0.09 0.145,0.091 0.144,0.092 0.144,0.092 0.143,0.094 0.143,0.094 0.141,0.096 0.142,0.096 0.14,0.097 0.14,0.097 0.14,0.099 0.139,0.099 0.138,0.101 0.137,0.101 0.137,0.101 0.137,0.103 0.135,0.103 0.135,0.104 0.135,0.105 0.133,0.106 0.133,0.107 0.133,0.107 0.132,0.108 0.131,0.109 0.13,0.11 0.13,0.11 0.129,0.111 0.128,0.112 0.128,0.113 0.127,0.113 0.127,0.114 0.125,0.115 0.125,0.116 0.125,0.116 0.123,0.118 0.123,0.117 0.122,0.119 0.122,0.119 0.12,0.12 0.12,0.121 0.12,0.122 0.118,0.122 0.118,0.123 0.117,0.123 0.117,0.125 0.115,0.125 0.115,0.125 0.115,0.127 0.113,0.127 0.113,0.128 0.112,0.128 0.111,0.129 0.11,0.13 0.11,0.13 0.109,0.131 0.108,0.132 0.107,0.132 0.107,0.134 0.105,0.133 0.105,0.135 0.105,0.135 0.103,0.135 0.103,0.137 0.101,0.137 0.101,0.137 0.101,0.138 0.099,0.139 0.098,0.139 0.098,0.141 0.097,0.14 0.096,0.141 0.095,0.142 0.095,0.143 0.093,0.143 0.093,0.143 0.092,0.145 0.091,0.145 0.09,0.145 0.09,0.146 0.088,0.147 0.088,0.147 0.087,0.147 0.085,0.149 0.086,0.149 0.084,0.149 0.083,0.15 0.082,0.15 0.082,0.152 0.081,0.151 0.079,0.152 0.079,0.153 0.078,0.153 0.077,0.154 0.076,0.154 0.075,0.155 0.075,0.155 0.073,0.156 0.073,0.157 0.071,0.157 0.071,0.157 0.07,0.158 0.068,0.158 0.068,0.159 0.067,0.16 0.066,0.159 0.065,0.161 0.064,0.161 0.063,0.161 0.062,0.162 0.061,0.162 0.061,0.163 0.059,0.163 0.058,0.164 0.057,0.164 0.057,0.164 0.055,0.165 0.054,0.166 0.054,0.166 0.052,0.166 0.051,0.167 0.051,0.167 0.049,0.168 0.048,0.168 0.048,0.168 0.046,0.169 0.045,0.17 0.045,0.169 0.043,0.171 0.042,0.17 0.041,0.171 0.041,0.172 0.039,0.171 0.038,0.173 0.037,0.172 0.036,0.173 0.035,0.173 0.034,0.174 0.033,0.174 0.031,0.175 0.031,0.174 0.03,0.176 0.028,0.175 0.028,0.176 0.026,0.176 0.025,0.177 0.025,0.177 0.023,0.177 0.022,0.178 0.021,0.178 0.02,0.178 0.018,0.179 0.018,0.179 0.016,0.179 0.016,0.18 0.014,0.179 0.013,0.181 0.012,0.18 0.011,0.181 0.01,0.181 0.009,0.182 0.007,0.181 0.006,0.182 0.006,0.183 0.004,0.182 0.003,0.183 0.001,0.183 10e-4,0.184 V 70.179 H 61.149 V 35.417 l -10e-4,-0.172 -0.001,-0.171 -0.003,-0.171 -0.004,-0.171 -0.005,-0.17 -0.006,-0.17 -0.007,-0.17 -0.008,-0.17 -0.009,-0.169 -0.01,-0.169 -0.011,-0.169 -0.013,-0.169 -0.013,-0.168 -0.014,-0.168 -0.016,-0.167 -0.016,-0.168 -0.018,-0.167 -0.018,-0.166 -0.02,-0.167 -0.02,-0.166 -0.022,-0.166 -0.023,-0.165 -0.023,-0.165 -0.025,-0.165 -0.026,-0.164 -0.026,-0.164 -0.028,-0.164 -0.029,-0.164 -0.03,-0.163 -0.03,-0.162 -0.032,-0.163 -0.033,-0.162 -0.033,-0.162 -0.035,-0.161 -0.035,-0.161 -0.037,-0.16 -0.038,-0.161 -0.038,-0.16 -0.04,-0.159 -0.04,-0.159 L 60.272,28.63 60.229,28.472 60.186,28.314 60.142,28.156 60.096,27.999 60.05,27.842 60.003,27.686 59.955,27.53 59.906,27.375 59.856,27.22 59.806,27.065 59.754,26.911 59.701,26.757 59.648,26.603 59.593,26.45 59.538,26.298 59.481,26.145 59.424,25.994 59.366,25.843 59.307,25.692 59.247,25.541 59.187,25.391 59.125,25.242 59.062,25.093 58.999,24.944 58.935,24.796 58.87,24.649 58.804,24.502 58.737,24.355 58.669,24.209 58.6,24.063 58.531,23.918 58.46,23.773 58.389,23.629 58.317,23.485 58.244,23.342 58.171,23.199 58.096,23.057 58.021,22.915 57.945,22.774 57.867,22.633 57.79,22.493 57.711,22.353 57.631,22.214 57.551,22.075 57.47,21.937 57.388,21.8 57.305,21.663 57.222,21.526 57.137,21.39 57.052,21.255 56.966,21.12 56.88,20.986 l -0.088,-0.134 -0.088,-0.133 -0.089,-0.133 -0.09,-0.132 -0.091,-0.131 -0.091,-0.131 -0.092,-0.131 -0.093,-0.129 -0.094,-0.13 -0.094,-0.128 -0.095,-0.128 -0.096,-0.128 -0.097,-0.126 -0.097,-0.127 -0.098,-0.125 -0.099,-0.125 -0.1,-0.125 -0.1,-0.124 -0.101,-0.123 -0.102,-0.122 -0.102,-0.122 -0.104,-0.122 -0.104,-0.12 -0.104,-0.12 -0.106,-0.12 -0.106,-0.118 -0.106,-0.119 -0.108,-0.117 -0.108,-0.117 -0.109,-0.116 -0.109,-0.116 -0.11,-0.115 -0.111,-0.114 -0.112,-0.113 -0.112,-0.113 -0.113,-0.113 -0.114,-0.111 -0.114,-0.111 -0.115,-0.11 -0.115,-0.11 L 52.687,15.996 52.57,15.887 52.452,15.78 52.334,15.673 52.215,15.567 52.096,15.462 51.976,15.357 51.855,15.253 51.734,15.15 51.612,15.048 51.489,14.946 51.366,14.845 51.242,14.744 51.118,14.645 50.993,14.546 50.867,14.448 50.741,14.35 50.614,14.254 50.487,14.158 50.359,14.063 50.23,13.968 50.101,13.875 49.971,13.782 49.841,13.69 49.71,13.598 49.579,13.508 49.447,13.418 49.314,13.329 49.181,13.24 49.047,13.153 48.913,13.066 48.778,12.98 48.642,12.895 48.506,12.811 48.37,12.727 48.233,12.645 48.095,12.563 47.957,12.482 47.819,12.401 47.679,12.322 47.54,12.243 47.4,12.165 47.259,12.088 47.118,12.012 46.976,11.937 46.834,11.862 46.691,11.788 46.548,11.715 46.404,11.643 46.26,11.572 46.115,11.502 45.97,11.432 45.824,11.364 45.678,11.296 45.531,11.229 45.384,11.163 45.236,11.098 45.088,11.034 44.94,10.97 44.791,10.908 44.641,10.846 44.491,10.785 44.341,10.725 44.19,10.666 44.039,10.608 43.887,10.551 43.735,10.495 43.582,10.44 43.429,10.385 43.276,10.331 43.122,10.279 42.968,10.227 42.813,10.176 42.658,10.126 42.502,10.077 42.347,10.029 42.19,9.982 42.033,9.936 41.876,9.891 41.719,9.847 41.561,9.803 41.402,9.761 41.244,9.72 41.085,9.679 40.925,9.64 40.765,9.601 40.605,9.564 40.445,9.527 40.284,9.492 40.122,9.457 39.961,9.423 39.799,9.391 39.636,9.359 39.473,9.328 39.31,9.299 39.147,9.27 38.983,9.242 38.819,9.215 38.655,9.19 38.49,9.165 38.325,9.141 38.159,9.119 37.993,9.097 37.827,9.077 37.661,9.057 37.494,9.038 37.327,9.021 37.16,9.004 36.992,8.989 36.824,8.975 36.656,8.961 36.488,8.949 36.319,8.938 36.15,8.927 35.981,8.918 35.811,8.91 35.641,8.903 35.471,8.897 35.3,8.892 35.13,8.889 34.959,8.886 34.788,8.884 h -0.172 -0.171 l -0.172,0.002 -0.171,0.003 -0.17,0.003 -0.171,0.005 -0.17,0.006 -0.17,0.007 -0.169,0.008 -0.17,0.009 -0.169,0.011 -0.169,0.011 -0.168,0.012 -0.168,0.014 -0.168,0.014 -0.168,0.015 -0.167,0.017 -0.167,0.017 -0.167,0.019 -0.166,0.02 -0.166,0.02 -0.166,0.022 -0.165,0.022 -0.166,0.024 -0.164,0.025 -0.165,0.025 -0.164,0.027 -0.164,0.028 -0.163,0.028 -0.163,0.03 -0.163,0.031 -0.162,0.032 -0.162,0.032 -0.162,0.034 -0.161,0.035 -0.161,0.035 -0.161,0.037 -0.16,0.037 -0.16,0.039 -0.159,0.039 -0.16,0.041 -0.158,0.041 -0.159,0.042 -0.158,0.044 -0.157,0.044 -0.157,0.045 -0.157,0.046 -0.156,0.047 -0.156,0.048 -0.156,0.049 -0.155,0.05 -0.155,0.051 -0.154,0.052 -0.154,0.052 -0.153,0.054 -0.153,0.054 -0.153,0.056 -0.152,0.056 -0.152,0.057 -0.151,0.058 -0.151,0.059 -0.15,0.06 -0.15,0.061 -0.149,0.062 -0.149,0.062 -0.149,0.064 -0.148,0.064 -0.148,0.065 -0.147,0.066 -0.146,0.067 -0.147,0.068 -0.145,0.068 -0.146,0.07 -0.144,0.07 -0.145,0.071 -0.143,0.072 -0.144,0.073 -0.142,0.074 -0.143,0.074 -0.141,0.076 -0.142,0.076 -0.14,0.077 -0.14,0.078 -0.14,0.079 -0.139,0.079 -0.139,0.08 -0.138,0.082 -0.138,0.082 -0.137,0.082 -0.136,0.084 -0.136,0.084 -0.136,0.085 -0.134,0.086 -0.135,0.087 -0.133,0.087 -0.134,0.089 -0.132,0.089 -0.132,0.09 -0.132,0.09 -0.131,0.091 -0.13,0.093 -0.13,0.093 -0.129,0.093 -0.129,0.095 -0.128,0.095 -0.127,0.096 -0.127,0.096 -0.126,0.098 -0.126,0.098 -0.125,0.099 -0.124,0.099 -0.124,0.101 -0.123,0.101 -0.123,0.101 -0.122,0.103 -0.121,0.103 -0.121,0.104 -0.12,0.105 -0.119,0.105 -0.119,0.106 -0.118,0.107 -0.117,0.107 -0.117,0.108 -0.117,0.109 -0.115,0.11 -0.115,0.11 -0.114,0.111 -0.114,0.111 -0.113,0.113 -0.112,0.113 -0.111,0.113 -0.111,0.114 -0.11,0.115 -0.11,0.116 -0.109,0.116 -0.108,0.117 -0.107,0.117 -0.107,0.118 -0.106,0.119 -0.106,0.12 -0.104,0.12 -0.104,0.12 -0.103,0.122 -0.103,0.122 -0.102,0.122 -0.101,0.123 -0.1,0.124 -0.1,0.125 -0.098,0.125 -0.099,0.125 -0.097,0.126 -0.097,0.127 -0.096,0.128 -0.095,0.128 -0.094,0.128 -0.094,0.13 -0.093,0.129 -0.092,0.131 -0.091,0.131 -0.091,0.131 -0.09,0.132 -0.089,0.133 -0.088,0.133 -0.087,0.134 -0.087,0.134 -0.086,0.135 -0.085,0.135 -0.085,0.136 -0.083,0.137 -0.083,0.137 -0.082,0.137 -0.081,0.138 -0.08,0.139 -0.08,0.139 -0.078,0.14 -0.078,0.14 -0.077,0.141 -0.076,0.141 -0.076,0.142 -0.074,0.142 -0.074,0.143 -0.073,0.143 -0.072,0.144 -0.071,0.144 -0.071,0.145 -0.069,0.145 -0.069,0.146 -0.067,0.146 -0.067,0.146 -0.066,0.148 -0.065,0.147 -0.065,0.148 -0.063,0.149 -0.063,0.149 -0.061,0.149 -0.061,0.15 -0.06,0.151 -0.059,0.15 -0.058,0.152 -0.057,0.151 -0.057,0.153 -0.055,0.152 -0.054,0.153 -0.054,0.154 -0.053,0.153 -0.051,0.155 -0.051,0.154 -0.05,0.156 -0.049,0.155 -0.048,0.156 -0.047,0.156 -0.046,0.157 -0.045,0.157 -0.045,0.158 -0.043,0.158 -0.042,0.158 -0.042,0.159 -0.04,0.159 -0.04,0.159 -0.038,0.16 -0.038,0.16 -0.036,0.161 -0.036,0.161 -0.035,0.161 -0.033,0.162 -0.033,0.162 -0.032,0.162 -0.03,0.163 -0.03,0.163 -0.029,0.164 -0.027,0.164 -0.027,0.164 -0.026,0.164 -0.024,0.165 -0.024,0.165 -0.023,0.165 -0.021,0.166 -0.021,0.166 -0.019,0.167 -0.019,0.166 -0.018,0.167 -0.016,0.168 -0.015,0.167 -0.015,0.168 -0.013,0.168 -0.013,0.169 -0.011,0.169 -0.01,0.169 -0.009,0.169 -0.008,0.17 -0.007,0.17 -0.006,0.17 -0.005,0.17 -0.004,0.171 -0.002,0.171 -0.002,0.171 -10e-4,0.172 V 70.179 H 6.235 V 35.202 L 6.236,35.018 6.238,34.835 6.241,34.652 6.245,34.47 6.25,34.287 6.256,34.105 6.264,33.924 6.272,33.742 6.282,33.561 6.293,33.38 6.305,33.2 6.318,33.019 6.332,32.84 6.348,32.66 6.364,32.481 6.382,32.302 6.401,32.123 6.421,31.945 6.441,31.767 6.464,31.589 6.487,31.412 6.511,31.235 6.536,31.058 6.563,30.882 6.59,30.706 6.619,30.531 6.648,30.355 6.679,30.181 6.711,30.006 6.744,29.832 6.777,29.658 6.812,29.485 6.848,29.312 6.885,29.14 6.923,28.967 6.963,28.796 7.003,28.624 7.044,28.453 7.086,28.283 7.13,28.112 7.174,27.943 7.219,27.773 7.265,27.604 7.313,27.436 7.361,27.268 7.41,27.1 7.461,26.933 7.512,26.766 7.565,26.6 7.618,26.434 7.672,26.268 7.728,26.103 7.784,25.939 7.841,25.775 7.899,25.611 7.959,25.448 8.019,25.285 8.08,25.123 8.142,24.961 8.205,24.8 8.269,24.639 8.334,24.478 8.4,24.318 8.467,24.159 8.535,24 8.604,23.842 8.673,23.684 8.744,23.526 8.816,23.37 l 0.072,-0.157 0.074,-0.156 0.074,-0.155 0.075,-0.155 0.076,-0.154 0.077,-0.154 0.078,-0.153 0.079,-0.153 0.08,-0.152 0.08,-0.152 0.082,-0.151 0.082,-0.15 0.084,-0.15 0.084,-0.15 0.085,-0.148 0.086,-0.149 0.086,-0.147 0.088,-0.148 0.089,-0.146 0.089,-0.146 0.09,-0.146 0.091,-0.144 0.092,-0.145 0.093,-0.143 0.093,-0.143 0.095,-0.143 0.095,-0.142 0.096,-0.141 0.097,-0.141 0.098,-0.14 0.098,-0.139 0.1,-0.139 0.1,-0.138 0.101,-0.138 0.102,-0.136 0.102,-0.137 0.104,-0.135 0.104,-0.135 0.105,-0.135 0.106,-0.134 0.106,-0.133 0.107,-0.132 0.109,-0.132 0.108,-0.131 0.11,-0.13 0.11,-0.13 0.112,-0.129 0.112,-0.129 0.112,-0.127 0.114,-0.127 0.114,-0.127 0.115,-0.125 0.115,-0.125 0.117,-0.125 0.117,-0.123 0.118,-0.123 0.118,-0.122 0.12,-0.122 0.12,-0.121 0.121,-0.12 0.121,-0.119 0.122,-0.119 0.123,-0.117 0.124,-0.118 0.124,-0.116 0.125,-0.116 0.126,-0.115 0.126,-0.114 0.127,-0.113 0.128,-0.113 0.128,-0.112 0.129,-0.111 0.13,-0.11 0.131,-0.11 0.131,-0.109 0.131,-0.108 0.133,-0.107 0.133,-0.107 0.134,-0.106 0.134,-0.105 0.135,-0.104 0.136,-0.103 0.136,-0.103 0.137,-0.102 0.137,-0.1 0.139,-0.101 0.138,-0.099 0.14,-0.099 0.14,-0.097 0.141,-0.097 0.141,-0.096 0.142,-0.096 0.142,-0.094 0.143,-0.094 0.144,-0.092 0.144,-0.092 0.145,-0.091 0.145,-0.09 0.146,-0.09 0.147,-0.088 0.147,-0.088 0.148,-0.087 0.148,-0.086 0.149,-0.085 0.149,-0.084 0.15,-0.083 0.151,-0.083 0.151,-0.081 0.152,-0.081 0.152,-0.079 0.152,-0.079 0.154,-0.078 0.153,-0.077 0.155,-0.076 0.154,-0.076 0.156,-0.074 0.156,-0.073 0.156,-0.073 0.157,-0.071 0.157,-0.071 0.158,-0.07 0.159,-0.068 0.158,-0.068 0.16,-0.067 0.16,-0.066 0.16,-0.065 0.161,-0.064 0.161,-0.063 0.162,-0.062 0.162,-0.062 0.163,-0.06 0.163,-0.059 0.164,-0.058 0.164,-0.058 0.165,-0.056 0.165,-0.055 0.165,-0.054 0.166,-0.054 0.166,-0.052 0.167,-0.052 0.168,-0.05 0.167,-0.049 0.168,-0.049 0.169,-0.047 0.169,-0.046 0.169,-0.046 0.17,-0.044 0.17,-0.043 0.171,-0.042 0.171,-0.042 0.171,-0.04 0.172,-0.039 0.172,-0.038 0.172,-0.037 0.173,-0.036 0.174,-0.035 0.173,-0.034 0.175,-0.033 0.174,-0.031 0.175,-0.031 0.175,-0.03 0.176,-0.028 0.175,-0.028 0.177,-0.026 0.176,-0.025 0.177,-0.025 0.178,-0.023 0.177,-0.022 0.178,-0.021 0.178,-0.02 0.179,-0.018 0.179,-0.018 0.179,-0.017 0.18,-0.015 0.18,-0.014 0.18,-0.013 0.181,-0.012 0.18,-0.011 0.182,-0.01 L 33.338,6.849 33.52,6.842 33.702,6.835 33.884,6.83 34.067,6.826 34.25,6.823 34.433,6.822 34.616,6.821 Z"
     style="fill:#e8573c"
     id="path3" /><path
     d="M 60.631,69.561 V 35.477 C 60.631,21.119 48.974,9.462 34.616,9.462 20.258,9.462 8.601,21.119 8.601,35.477 V 69.561 H 6.789 V 35.266 c 0,-15.358 12.469,-27.827 27.827,-27.827 15.358,0 27.827,12.469 27.827,27.827 v 34.295 z"
     style="fill:#e8573c"
     id="path4" /><path
     d="m 34.796,7.44 0.18,0.002 0.179,0.002 0.179,0.004 0.179,0.005 0.178,0.007 0.178,0.007 0.178,0.008 0.178,0.01 0.177,0.011 0.177,0.012 0.177,0.012 0.176,0.014 0.176,0.016 0.176,0.016 0.176,0.017 0.175,0.018 0.175,0.02 0.174,0.02 0.174,0.022 0.174,0.023 0.174,0.023 0.173,0.025 0.172,0.026 0.173,0.027 0.172,0.028 0.172,0.029 0.171,0.03 0.171,0.031 0.171,0.033 0.17,0.033 0.17,0.034 0.17,0.035 0.169,0.037 0.169,0.037 0.168,0.038 0.168,0.04 0.168,0.04 0.167,0.042 0.167,0.042 0.167,0.043 0.166,0.045 0.165,0.045 0.165,0.047 0.165,0.047 0.165,0.048 0.164,0.05 0.163,0.05 0.163,0.051 0.163,0.053 0.162,0.053 0.162,0.054 0.161,0.056 0.161,0.056 0.161,0.057 0.16,0.058 0.159,0.059 0.159,0.06 0.159,0.061 0.158,0.062 0.158,0.062 0.157,0.064 0.157,0.065 0.156,0.065 0.156,0.067 0.155,0.067 0.155,0.069 0.154,0.069 0.154,0.07 0.154,0.071 0.152,0.072 0.153,0.073 0.152,0.074 0.151,0.074 0.151,0.076 0.15,0.076 0.15,0.078 0.149,0.078 0.148,0.079 0.149,0.08 0.147,0.081 0.147,0.081 0.147,0.083 0.146,0.083 0.145,0.084 0.145,0.086 0.144,0.085 0.144,0.087 0.143,0.088 0.143,0.088 0.142,0.09 0.141,0.09 0.141,0.091 0.14,0.091 0.14,0.093 0.139,0.093 0.138,0.095 0.138,0.095 0.138,0.095 0.136,0.097 0.136,0.097 0.136,0.099 0.135,0.099 0.134,0.099 0.134,0.101 0.133,0.101 0.132,0.103 0.132,0.103 0.131,0.103 0.13,0.105 0.13,0.105 0.129,0.106 0.129,0.107 0.128,0.107 0.127,0.108 0.127,0.109 0.125,0.11 0.126,0.111 0.124,0.111 0.124,0.112 0.123,0.112 0.123,0.114 0.122,0.114 0.121,0.115 0.121,0.115 0.119,0.117 0.119,0.117 0.119,0.117 0.118,0.119 0.117,0.119 0.116,0.12 0.115,0.12 0.115,0.121 0.114,0.122 0.114,0.123 0.112,0.123 0.112,0.124 0.112,0.125 0.11,0.125 0.11,0.126 0.109,0.126 0.108,0.127 0.108,0.128 0.106,0.129 0.106,0.129 0.106,0.13 0.104,0.13 0.104,0.132 0.103,0.131 0.102,0.133 0.101,0.133 0.101,0.133 0.1,0.135 0.099,0.134 0.098,0.136 0.097,0.136 0.097,0.137 0.096,0.137 0.095,0.138 0.094,0.138 0.093,0.139 0.093,0.14 0.092,0.14 0.091,0.141 0.09,0.142 0.089,0.142 0.088,0.142 0.088,0.143 0.087,0.144 0.086,0.144 0.085,0.145 0.084,0.146 0.083,0.146 0.083,0.146 0.082,0.147 0.08,0.148 0.08,0.148 0.079,0.149 0.079,0.149 0.077,0.149 0.076,0.151 0.076,0.15 0.074,0.152 0.074,0.152 0.073,0.152 0.072,0.153 0.071,0.153 0.07,0.154 0.07,0.154 0.068,0.155 0.067,0.155 0.067,0.156 0.065,0.156 0.065,0.157 0.064,0.157 0.063,0.158 0.061,0.158 0.061,0.159 0.06,0.159 0.059,0.159 0.058,0.16 0.058,0.161 0.056,0.161 0.055,0.161 0.054,0.162 0.053,0.162 0.053,0.163 0.051,0.163 0.05,0.164 0.05,0.164 0.048,0.164 0.048,0.165 0.046,0.165 0.045,0.166 0.045,0.166 0.043,0.166 0.043,0.167 0.041,0.167 0.041,0.168 0.039,0.168 0.038,0.168 0.038,0.169 0.036,0.169 0.035,0.17 0.035,0.17 0.033,0.17 0.032,0.171 0.031,0.171 0.03,0.171 0.029,0.172 0.028,0.172 0.027,0.173 0.026,0.173 0.025,0.173 0.024,0.173 0.022,0.174 0.022,0.174 0.02,0.175 0.02,0.175 0.018,0.175 0.018,0.175 0.016,0.176 0.015,0.176 0.014,0.176 0.013,0.177 0.012,0.177 0.01,0.177 0.01,0.178 0.008,0.178 0.008,0.178 0.006,0.179 0.005,0.178 0.004,0.179 0.003,0.18 10e-4,0.179 10e-4,0.18 V 69.561 H 60.631 V 35.477 35.309 l -0.002,-0.168 -0.003,-0.168 -0.003,-0.167 -0.005,-0.167 -0.006,-0.167 -0.007,-0.167 -0.008,-0.166 -0.009,-0.166 -0.01,-0.166 -0.011,-0.165 -0.012,-0.166 -0.013,-0.165 -0.014,-0.164 -0.015,-0.165 -0.016,-0.164 -0.018,-0.163 -0.018,-0.164 -0.019,-0.163 -0.02,-0.163 -0.021,-0.162 -0.023,-0.162 -0.023,-0.162 -0.024,-0.162 -0.025,-0.161 -0.026,-0.161 -0.027,-0.161 -0.029,-0.16 -0.029,-0.16 -0.03,-0.159 -0.031,-0.16 L 60.102,30.237 60.069,30.078 60.035,29.92 60,29.762 59.964,29.605 59.928,29.447 59.89,29.291 l -0.039,-0.157 -0.04,-0.156 -0.04,-0.155 -0.042,-0.155 -0.042,-0.155 -0.044,-0.155 -0.044,-0.154 -0.045,-0.154 -0.046,-0.153 -0.047,-0.153 -0.048,-0.152 -0.049,-0.152 -0.05,-0.152 -0.051,-0.151 -0.051,-0.151 -0.053,-0.151 -0.053,-0.15 -0.055,-0.149 -0.055,-0.149 -0.056,-0.149 -0.057,-0.148 -0.058,-0.148 -0.058,-0.148 -0.06,-0.147 -0.06,-0.146 -0.062,-0.146 -0.062,-0.146 -0.063,-0.145 -0.064,-0.145 -0.065,-0.144 -0.065,-0.144 -0.067,-0.143 -0.067,-0.143 -0.068,-0.143 -0.069,-0.142 -0.07,-0.141 -0.07,-0.141 -0.072,-0.14 -0.072,-0.14 -0.073,-0.14 -0.074,-0.139 -0.075,-0.138 -0.075,-0.138 -0.077,-0.138 -0.077,-0.137 -0.078,-0.136 -0.078,-0.136 -0.08,-0.135 -0.08,-0.135 -0.081,-0.135 -0.082,-0.134 -0.083,-0.133 -0.084,-0.133 -0.084,-0.132 -0.085,-0.131 -0.086,-0.132 -0.086,-0.13 -0.087,-0.13 -0.089,-0.13 -0.088,-0.129 -0.09,-0.128 -0.09,-0.128 -0.091,-0.127 -0.092,-0.127 -0.093,-0.126 -0.093,-0.125 -0.094,-0.125 -0.095,-0.125 -0.095,-0.123 -0.097,-0.123 -0.096,-0.123 -0.098,-0.122 -0.099,-0.121 -0.099,-0.121 -0.099,-0.12 -0.101,-0.12 -0.101,-0.119 -0.102,-0.118 -0.103,-0.118 -0.103,-0.117 -0.104,-0.116 -0.105,-0.116 -0.105,-0.116 -0.106,-0.114 -0.107,-0.114 -0.107,-0.113 -0.108,-0.113 -0.109,-0.112 -0.109,-0.111 -0.11,-0.111 -0.111,-0.11 -0.111,-0.109 -0.112,-0.109 -0.113,-0.108 -0.113,-0.108 -0.114,-0.106 -0.115,-0.106 -0.115,-0.106 -0.116,-0.104 -0.116,-0.104 -0.117,-0.104 -0.118,-0.102 -0.118,-0.102 -0.119,-0.101 -0.12,-0.101 -0.12,-0.1 -0.121,-0.099 -0.121,-0.098 -0.122,-0.098 -0.123,-0.097 -0.123,-0.096 -0.124,-0.095 -0.124,-0.095 -0.125,-0.094 -0.125,-0.093 -0.126,-0.093 -0.127,-0.092 -0.127,-0.091 -0.128,-0.09 -0.129,-0.09 -0.128,-0.089 -0.13,-0.088 -0.13,-0.087 -0.131,-0.087 -0.131,-0.085 -0.131,-0.085 -0.133,-0.085 -0.132,-0.083 -0.134,-0.083 -0.133,-0.082 -0.135,-0.081 -0.135,-0.08 -0.135,-0.08 -0.136,-0.078 -0.136,-0.078 -0.137,-0.078 -0.138,-0.076 -0.138,-0.075 -0.138,-0.075 -0.139,-0.074 -0.14,-0.073 -0.14,-0.072 -0.14,-0.072 -0.141,-0.07 -0.142,-0.07 -0.142,-0.069 -0.142,-0.068 -0.143,-0.068 -0.143,-0.066 -0.144,-0.066 -0.144,-0.064 -0.145,-0.064 -0.145,-0.063 -0.146,-0.062 -0.146,-0.062 -0.146,-0.06 -0.147,-0.06 -0.148,-0.059 -0.148,-0.057 -0.148,-0.057 -0.149,-0.056 -0.149,-0.056 -0.15,-0.054 -0.15,-0.053 -0.15,-0.053 L 42.956,10.83 42.805,10.779 42.653,10.729 42.501,10.68 42.349,10.632 42.196,10.585 42.042,10.539 41.889,10.494 41.735,10.449 41.58,10.406 41.425,10.364 41.27,10.322 41.114,10.281 40.958,10.242 40.802,10.203 40.645,10.165 40.488,10.128 40.331,10.093 40.173,10.058 40.015,10.024 39.856,9.991 39.697,9.959 39.538,9.928 39.379,9.898 39.219,9.868 39.058,9.84 38.898,9.813 38.737,9.787 38.576,9.762 38.414,9.738 38.252,9.714 38.09,9.692 37.928,9.671 37.765,9.651 37.602,9.632 37.438,9.613 37.274,9.596 37.11,9.58 36.946,9.565 36.781,9.551 36.616,9.538 36.451,9.526 36.286,9.515 36.12,9.505 35.954,9.496 35.788,9.488 35.621,9.481 35.454,9.475 35.287,9.47 35.12,9.467 34.952,9.464 34.784,9.462 h -0.168 -0.168 l -0.168,0.002 -0.168,0.003 -0.167,0.003 -0.167,0.005 -0.167,0.006 -0.166,0.007 -0.167,0.008 -0.166,0.009 -0.166,0.01 -0.165,0.011 -0.165,0.012 -0.165,0.013 -0.165,0.014 -0.164,0.015 -0.164,0.016 -0.164,0.017 -0.163,0.019 -0.163,0.019 -0.163,0.02 -0.163,0.021 -0.162,0.022 -0.162,0.024 -0.161,0.024 -0.162,0.025 -0.161,0.026 -0.16,0.027 -0.16,0.028 -0.16,0.03 -0.16,0.03 -0.159,0.031 -0.159,0.032 -0.159,0.033 -0.158,0.034 -0.158,0.035 -0.157,0.035 -0.157,0.037 -0.157,0.038 -0.156,0.039 -0.156,0.039 -0.156,0.041 -0.155,0.042 -0.155,0.042 -0.154,0.043 -0.154,0.045 -0.154,0.045 -0.153,0.046 -0.153,0.047 -0.153,0.048 -0.152,0.049 -0.152,0.05 -0.151,0.051 -0.151,0.051 -0.15,0.053 -0.15,0.053 -0.15,0.054 -0.149,0.056 -0.149,0.056 -0.148,0.057 -0.148,0.057 -0.147,0.059 -0.147,0.06 -0.147,0.06 -0.146,0.061 -0.146,0.063 -0.145,0.063 -0.145,0.064 -0.144,0.064 -0.144,0.066 -0.143,0.066 -0.143,0.068 -0.142,0.068 -0.142,0.069 -0.142,0.069 -0.14,0.071 -0.141,0.072 -0.14,0.072 -0.139,0.073 -0.139,0.074 -0.139,0.075 -0.138,0.075 -0.137,0.076 -0.137,0.078 -0.137,0.078 -0.136,0.078 -0.135,0.08 -0.135,0.08 -0.134,0.081 -0.134,0.082 -0.133,0.083 -0.133,0.083 -0.132,0.085 -0.132,0.085 -0.131,0.085 -0.131,0.087 -0.13,0.087 -0.129,0.088 -0.129,0.089 -0.129,0.09 -0.127,0.09 -0.128,0.091 -0.126,0.092 -0.126,0.093 -0.126,0.093 -0.125,0.094 -0.124,0.095 -0.124,0.095 -0.123,0.096 -0.123,0.097 -0.122,0.098 -0.121,0.098 -0.121,0.099 -0.12,0.1 -0.119,0.101 -0.119,0.101 -0.119,0.102 -0.117,0.102 -0.118,0.104 -0.116,0.104 -0.116,0.104 -0.115,0.106 -0.115,0.106 -0.114,0.106 -0.113,0.108 -0.113,0.108 -0.112,0.109 -0.111,0.109 -0.111,0.11 -0.11,0.111 -0.109,0.111 -0.109,0.112 -0.108,0.113 -0.107,0.113 -0.107,0.114 -0.106,0.114 -0.105,0.116 -0.105,0.115 -0.104,0.117 -0.103,0.117 -0.103,0.118 -0.102,0.118 -0.101,0.119 -0.1,0.12 -0.1,0.12 -0.099,0.121 -0.099,0.121 -0.097,0.122 -0.097,0.122 -0.096,0.124 -0.096,0.123 -0.095,0.125 -0.094,0.125 -0.093,0.125 -0.093,0.126 -0.091,0.127 -0.091,0.127 -0.091,0.128 -0.089,0.128 -0.089,0.129 -0.088,0.13 -0.088,0.13 -0.086,0.13 -0.086,0.131 -0.085,0.132 -0.084,0.132 -0.084,0.133 -0.082,0.133 -0.082,0.134 -0.081,0.135 -0.081,0.134 -0.079,0.136 -0.079,0.136 -0.078,0.136 -0.077,0.137 -0.076,0.138 -0.076,0.138 -0.075,0.138 -0.074,0.139 -0.073,0.14 -0.072,0.14 -0.071,0.14 -0.071,0.141 -0.07,0.141 -0.069,0.142 -0.068,0.143 -0.067,0.143 -0.067,0.143 -0.065,0.144 -0.065,0.144 -0.064,0.145 -0.063,0.145 -0.062,0.146 -0.061,0.146 -0.061,0.146 -0.059,0.147 -0.059,0.148 -0.058,0.147 -0.057,0.149 -0.056,0.149 -0.055,0.149 -0.054,0.149 -0.054,0.15 -0.052,0.151 L 9.969,27.137 9.918,27.288 9.869,27.44 9.82,27.592 9.772,27.744 9.725,27.897 9.678,28.05 9.633,28.204 9.589,28.358 9.545,28.513 9.503,28.667 9.461,28.823 9.421,28.978 9.381,29.134 9.342,29.291 9.305,29.447 9.268,29.605 9.232,29.762 9.197,29.92 9.163,30.078 9.13,30.237 9.098,30.395 9.067,30.555 9.037,30.714 9.008,30.874 8.98,31.034 8.953,31.195 8.926,31.356 8.901,31.517 8.877,31.679 8.854,31.841 8.832,32.003 8.81,32.165 8.79,32.328 8.771,32.491 8.753,32.655 8.736,32.818 8.719,32.982 8.704,33.147 8.69,33.311 8.677,33.476 8.665,33.642 8.654,33.807 8.644,33.973 8.635,34.139 8.627,34.305 8.62,34.472 8.614,34.639 8.61,34.806 8.606,34.973 8.603,35.141 8.602,35.309 8.601,35.477 V 69.561 H 6.789 V 35.266 L 6.79,35.086 6.791,34.907 6.794,34.727 6.798,34.548 6.803,34.37 6.81,34.191 6.817,34.013 6.825,33.835 6.835,33.657 6.846,33.48 6.858,33.303 6.87,33.126 6.884,32.95 6.9,32.774 l 0.016,-0.176 0.017,-0.175 0.018,-0.175 0.02,-0.175 0.02,-0.175 0.022,-0.174 0.023,-0.174 0.023,-0.173 0.025,-0.173 0.026,-0.173 0.027,-0.173 0.028,-0.172 0.029,-0.172 0.03,-0.171 0.031,-0.171 0.033,-0.171 0.033,-0.17 0.034,-0.17 0.035,-0.17 0.037,-0.169 0.037,-0.169 0.038,-0.168 0.04,-0.168 0.04,-0.168 0.042,-0.167 0.042,-0.167 0.043,-0.166 0.045,-0.166 0.045,-0.166 0.047,-0.165 0.047,-0.165 0.048,-0.164 0.05,-0.164 0.05,-0.164 0.052,-0.163 0.052,-0.163 0.053,-0.162 0.054,-0.162 0.056,-0.161 0.056,-0.161 0.057,-0.161 0.058,-0.16 0.059,-0.159 0.06,-0.159 0.061,-0.159 0.062,-0.158 0.063,-0.158 0.063,-0.157 0.065,-0.157 0.065,-0.156 0.067,-0.156 0.067,-0.155 0.069,-0.155 0.069,-0.154 0.07,-0.154 0.071,-0.153 0.072,-0.153 0.073,-0.153 0.074,-0.151 0.074,-0.152 0.076,-0.15 0.076,-0.151 0.078,-0.149 0.078,-0.15 0.079,-0.148 0.08,-0.148 0.081,-0.148 0.081,-0.147 0.083,-0.146 0.083,-0.146 0.084,-0.146 0.086,-0.145 0.085,-0.144 0.087,-0.144 0.088,-0.143 0.088,-0.142 0.09,-0.142 0.09,-0.142 0.091,-0.141 0.091,-0.14 0.093,-0.14 0.093,-0.139 0.095,-0.138 0.095,-0.138 0.095,-0.137 0.097,-0.137 0.097,-0.136 0.099,-0.136 0.099,-0.135 0.1,-0.134 0.1,-0.133 0.101,-0.133 0.103,-0.133 0.103,-0.132 0.103,-0.131 0.105,-0.13 0.105,-0.13 0.106,-0.129 0.107,-0.129 0.107,-0.128 0.108,-0.127 0.109,-0.126 0.11,-0.126 0.111,-0.126 0.111,-0.124 0.112,-0.124 0.112,-0.123 0.114,-0.123 0.114,-0.122 0.115,-0.121 0.115,-0.12 0.117,-0.12 0.117,-0.119 0.117,-0.119 0.119,-0.117 0.119,-0.117 0.12,-0.117 0.12,-0.115 0.121,-0.115 0.122,-0.114 0.123,-0.114 0.123,-0.112 0.124,-0.112 0.125,-0.111 0.125,-0.111 0.126,-0.11 0.126,-0.109 0.128,-0.108 0.127,-0.107 0.129,-0.107 0.129,-0.106 0.13,-0.105 0.13,-0.105 0.132,-0.104 0.131,-0.102 0.133,-0.103 0.133,-0.101 0.133,-0.101 0.135,-0.099 0.134,-0.099 0.136,-0.099 0.136,-0.097 0.137,-0.097 0.137,-0.095 0.138,-0.095 0.138,-0.095 0.14,-0.093 0.139,-0.093 0.14,-0.091 0.141,-0.091 0.142,-0.09 0.142,-0.09 0.142,-0.088 0.143,-0.088 0.144,-0.087 0.144,-0.086 0.145,-0.085 0.146,-0.084 0.146,-0.083 0.146,-0.083 0.147,-0.081 0.148,-0.081 0.148,-0.08 0.149,-0.079 0.149,-0.078 0.149,-0.078 0.151,-0.076 0.15,-0.076 0.152,-0.074 0.152,-0.074 0.152,-0.073 0.153,-0.072 0.153,-0.071 0.154,-0.07 0.154,-0.069 0.155,-0.069 0.155,-0.067 0.156,-0.067 0.156,-0.065 0.157,-0.065 0.157,-0.064 0.158,-0.062 0.158,-0.062 0.159,-0.061 0.159,-0.06 0.159,-0.059 0.16,-0.058 0.161,-0.057 0.161,-0.056 0.161,-0.056 0.162,-0.054 0.162,-0.053 0.163,-0.053 0.163,-0.051 0.164,-0.05 0.164,-0.05 0.164,-0.048 0.165,-0.047 0.165,-0.047 0.166,-0.045 0.166,-0.045 0.166,-0.043 0.167,-0.042 0.167,-0.042 0.168,-0.04 0.168,-0.04 0.168,-0.038 0.169,-0.037 0.169,-0.037 0.17,-0.035 0.17,-0.034 0.17,-0.033 0.171,-0.033 0.171,-0.031 0.171,-0.03 L 30.036,7.815 30.208,7.787 30.381,7.76 30.554,7.734 30.727,7.709 30.9,7.686 31.074,7.663 31.248,7.641 31.423,7.621 31.598,7.601 31.773,7.583 31.948,7.566 32.124,7.55 32.3,7.534 32.476,7.52 32.653,7.508 32.83,7.496 33.007,7.485 33.185,7.475 33.363,7.467 33.541,7.46 33.72,7.453 33.898,7.448 34.077,7.444 34.257,7.442 34.436,7.44 34.616,7.439 Z"
     style="fill:#e8573c"
     id="path5" /><rect
     x="33.382"
     y="20.063999"
     width="2.4690001"
     height="19.67"
     style="fill:#e8573c"
     id="rect5" /><rect
     x="6.2350001"
     y="68.941002"
     width="56.762001"
     height="2.477"
     style="fill:#d1c7c7"
     id="rect6" /><rect
     x="6.2350001"
     y="68.941002"
     width="56.762001"
     height="2.477"
     style="fill:#e8573c"
     id="rect7" /><path
     d="m 19.021,50.637 3.01,-5.711"
     style="fill:none"
     id="path7" /><path
     d="m 29.77,7.439 v 11.186 h 2.469 V 7.439 Z"
     style="fill:#e8573c"
     id="path8" /><path
     d="M 37.201,8.016 V 18.62 h 2.468 V 8.016 Z"
     style="fill:#e8573c"
     id="path9" /><path
     d="m 20.576,54.579 7.127,-14.101 5.762,11.523"
     style="fill:none;stroke:#e8573c;stroke-width:2.47px"
     id="path10" /><path
     d="m 33.008,52.353 7.914,-16.119 8.336,17.299"
     style="fill:none;stroke:#e8573c;stroke-width:2.47px;stroke-linecap:round"
     id="path11" /><path
     d="M 62.728,35.685 51.346,35.769 51.327,33.3 62.71,33.216 Z"
     style="fill:#e8573c"
     id="path12" /><path
     d="M 18.112,35.751 6.73,35.835 6.711,33.366 18.094,33.282 Z"
     style="fill:#e8573c"
     id="path13" /><path
     d="m 23.764,22.276 -1.733,1.758 -8.108,-7.989 1.733,-1.758 z"
     style="fill:#e8573c"
     id="path14" /><path
     d="m 55.488,16.045 -8.108,7.989 -1.732,-1.758 8.108,-7.989 z"
     style="fill:#e8573c"
     id="path15" /><path
     d="M 28.377,26.781 H 40.855"
     style="fill:none;stroke:#e8573c;stroke-width:1.98px;stroke-linecap:butt"
     id="path16" /><path
     d="m 87.591,59.573 v -5.462 h 7.602 V 52.79 h -7.602 v -5.231 h 8.526 V 46.217 H 86.04 v 14.698 h 10.392 v -1.342 z"
     style="fill:#000000;fill-rule:nonzero;fill-opacity:1"
     id="path17" /><path
     d="m 107.352,49.871 -4.178,9.408 -4.136,-9.408 h -1.553 l 4.892,11.044 h 1.532 l 4.913,-11.044 z"
     style="fill:#000000;fill-rule:nonzero;fill-opacity:1"
     id="path18" /><path
     d="m 114.451,49.787 c -1.743,0 -3.382,0.545 -4.493,1.489 l 0.671,1.114 c 0.902,-0.799 2.247,-1.303 3.675,-1.303 2.059,0 3.131,1.029 3.131,2.921 v 0.672 h -3.509 c -3.171,0 -4.261,1.426 -4.261,3.128 0,1.912 1.53,3.212 4.03,3.212 1.828,0 3.13,-0.692 3.803,-1.825 v 1.72 h 1.425 v -6.844 c 0,-2.858 -1.614,-4.284 -4.472,-4.284 z m -0.525,10.059 c -1.765,0 -2.794,-0.798 -2.794,-2.08 0,-1.135 0.693,-1.975 2.836,-1.975 h 3.467 v 1.807 c -0.589,1.45 -1.828,2.248 -3.509,2.248 z"
     style="fill:#000000;fill-rule:nonzero;fill-opacity:1"
     id="path19" /><path
     d="m 128.606,49.787 c -1.912,0 -3.404,0.776 -4.202,2.119 v -2.035 h -1.425 v 11.044 h 1.488 V 55.12 c 0,-2.521 1.492,-3.991 3.865,-3.991 2.101,0 3.32,1.197 3.32,3.528 v 6.258 h 1.488 V 54.51 c 0,-3.171 -1.845,-4.723 -4.534,-4.723 z"
     style="fill:#000000;fill-rule:nonzero;fill-opacity:1"
     id="path20" /><path
     d="m 146.037,49.871 v 2.121 c -0.925,-1.45 -2.521,-2.205 -4.37,-2.205 -3.151,0 -5.542,2.161 -5.542,5.333 0,3.172 2.391,5.375 5.542,5.375 1.807,0 3.382,-0.734 4.307,-2.14 v 1.406 c 0,2.73 -1.282,4.012 -4.076,4.012 -1.701,0 -3.298,-0.567 -4.348,-1.513 l -0.754,1.135 c 1.153,1.091 3.128,1.699 5.144,1.699 3.656,0 5.522,-1.72 5.522,-5.522 v -9.701 z m -4.223,9.303 c -2.436,0 -4.18,-1.659 -4.18,-4.053 0,-2.396 1.744,-4.034 4.18,-4.034 2.437,0 4.202,1.638 4.202,4.033 0,2.395 -1.765,4.054 -4.202,4.054 z"
     style="fill:#000000;fill-rule:nonzero;fill-opacity:1"
     id="path21" /><path
     d="m 161.28,55.393 c 0,-3.319 -2.245,-5.606 -5.354,-5.606 -3.109,0 -5.395,2.329 -5.395,5.606 0,3.277 2.349,5.627 5.795,5.627 1.743,0 3.277,-0.629 4.262,-1.804 l -0.838,-0.967 c -0.841,0.967 -2.038,1.45 -3.382,1.45 -2.416,0 -4.181,-1.534 -4.349,-3.845 h 9.24 c 0,-0.168 0.021,-0.336 0.021,-0.461 z m -5.354,-4.327 c 2.164,0 3.74,1.513 3.929,3.677 h -7.836 c 0.189,-2.164 1.765,-3.677 3.907,-3.677 z"
     style="fill:#000000;fill-rule:nonzero;fill-opacity:1"
     id="path22" /><rect
     x="164.328"
     y="45.334999"
     width="1.488"
     height="15.579"
     style="fill:#000000;fill-rule:nonzero;fill-opacity:1"
     id="rect22" /><path
     d="m 170.731,47.454 c 0.63,0 1.091,-0.483 1.091,-1.091 0,-0.566 -0.482,-1.028 -1.091,-1.028 -0.608,0 -1.09,0.483 -1.09,1.049 0,0.587 0.482,1.07 1.09,1.07 z m -0.754,13.461 h 1.488 V 49.871 h -1.488 z"
     style="fill:#000000;fill-rule:nonzero;fill-opacity:1"
     id="path23" /><path
     d="m 180.201,61.02 c 1.869,0 3.444,-0.755 4.326,-2.182 l -1.113,-0.756 c -0.756,1.113 -1.932,1.617 -3.213,1.617 -2.415,0 -4.179,-1.701 -4.179,-4.306 0,-2.584 1.764,-4.306 4.179,-4.306 1.281,0 2.457,0.525 3.213,1.638 l 1.113,-0.756 c -0.882,-1.448 -2.457,-2.182 -4.326,-2.182 -3.297,0 -5.688,2.308 -5.688,5.606 0,3.298 2.391,5.627 5.688,5.627 z"
     style="fill:#000000;fill-rule:nonzero;fill-opacity:1"
     id="path24" /><path
     d="m 195.825,60.915 h 1.827 l -5.166,-6.53 4.725,-4.514 h -1.848 l -6.594,6.026 V 45.335 h -1.488 v 15.58 h 1.488 v -3.15 l 2.604,-2.393 z"
     style="fill:#000000;fill-rule:nonzero;fill-opacity:1"
     id="path25" /><path
     d="m 206.158,45.566 h -1.995 l -2.876,2.602 h 1.469 z m 0.986,4.305 -4.157,9.387 -4.157,-9.387 h -1.553 l 4.934,11.025 -0.483,1.071 c -0.63,1.386 -1.302,1.848 -2.289,1.848 -0.798,0 -1.47,-0.294 -2.015,-0.84 l -0.693,1.113 c 0.672,0.67 1.658,1.006 2.687,1.006 1.575,0 2.751,-0.692 3.674,-2.854 l 5.522,-12.369 z"
     style="fill:#000000;fill-rule:nonzero;fill-opacity:1"
     id="path26" /><path
     d="m 219.178,61.02 c 2.879,0 4.556,-1.237 4.556,-3.148 0,-4.241 -7.161,-1.994 -7.161,-4.977 0,-1.051 0.882,-1.829 2.878,-1.829 1.135,0 2.29,0.273 3.256,0.946 l 0.65,-1.198 c -0.923,-0.629 -2.477,-1.027 -3.906,-1.027 -2.815,0 -4.366,1.342 -4.366,3.15 0,4.368 7.161,2.102 7.161,4.977 0,1.092 -0.862,1.806 -2.963,1.806 -1.554,0 -3.045,-0.546 -3.926,-1.239 l -0.671,1.176 c 0.902,0.776 2.664,1.363 4.492,1.363 z"
     style="fill:#000000;fill-rule:nonzero;fill-opacity:1"
     id="path27" /><path
     d="m 232.177,49.787 c -1.764,0 -3.277,0.755 -4.201,2.182 v -6.634 h -1.488 v 15.58 h 1.425 v -2.184 c 0.903,1.492 2.437,2.289 4.264,2.289 3.151,0 5.501,-2.287 5.501,-5.627 0,-3.34 -2.35,-5.606 -5.501,-5.606 z m -0.105,9.912 c -2.352,0 -4.117,-1.722 -4.117,-4.306 0,-2.584 1.765,-4.306 4.117,-4.306 2.332,0 4.118,1.722 4.118,4.306 0,2.584 -1.786,4.306 -4.118,4.306 z"
     style="fill:#000000;fill-rule:nonzero;fill-opacity:1"
     id="path28" /><path
     d="m 245.239,61.02 c 3.235,0 5.606,-2.35 5.606,-5.627 0,-3.277 -2.371,-5.606 -5.606,-5.606 -3.235,0 -5.626,2.329 -5.626,5.606 0,3.277 2.391,5.627 5.626,5.627 z m 0,-1.321 c -2.352,0 -4.117,-1.722 -4.117,-4.306 0,-2.584 1.765,-4.306 4.117,-4.306 2.353,0 4.097,1.722 4.097,4.306 0,2.584 -1.744,4.306 -4.097,4.306 z"
     style="fill:#000000;fill-rule:nonzero;fill-opacity:1"
     id="path29" /><path
     d="m 255.318,52.032 v -2.161 h -1.425 v 11.044 h 1.488 v -5.627 c 0,-2.605 1.407,-4.075 3.717,-4.075 0.105,0 0.231,0.021 0.357,0.021 v -1.447 c -2.037,0 -3.444,0.776 -4.137,2.245 z"
     style="fill:#000000;fill-rule:nonzero;fill-opacity:1"
     id="path30" /><path
     d="m 100.422,38.498 h 3.393 l -9.222,-11.163 8.671,-9.133 H 99.958 L 88.938,29.539 V 18.202 h -2.896 v 20.296 h 2.896 V 33.25 l 3.712,-3.769 z"
     style="fill:#000000;fill-rule:nonzero;fill-opacity:1"
     id="path31" /><path
     d="m 111.705,22.987 c -2.466,0 -4.757,0.695 -6.35,1.969 l 1.159,2.089 c 1.187,-1.016 3.044,-1.655 4.872,-1.655 2.756,0 4.12,1.364 4.12,3.715 v 0.552 h -4.41 c -4.582,0 -6.175,2.026 -6.175,4.493 0,2.669 2.201,4.522 5.682,4.522 2.408,0 4.12,-0.81 5.048,-2.2 v 2.026 h 2.635 v -9.277 c 0,-4.207 -2.375,-6.234 -6.581,-6.234 z m -0.638,13.543 c -2.118,0 -3.395,-0.958 -3.395,-2.496 0,-1.306 0.784,-2.38 3.54,-2.38 h 4.294 v 2.148 c -0.696,1.77 -2.35,2.728 -4.439,2.728 z"
     style="fill:#000000;fill-rule:nonzero;fill-opacity:1"
     id="path32" /><rect
     x="122.466"
     y="29.337999"
     width="7.7969999"
     height="2.4030001"
     style="fill:#e8573c;fill-rule:nonzero;fill-opacity:1"
     id="rect32" /><path
     d="m 134.965,38.498 h 8.553 c 6.526,0 10.96,-4.115 10.96,-10.148 0,-6.034 -4.434,-10.148 -10.96,-10.148 h -8.553 z m 2.896,-2.519 V 20.721 h 5.483 c 5.018,0 8.238,3.075 8.238,7.629 0,4.554 -3.22,7.629 -8.238,7.629 z"
     style="fill:#000000;fill-rule:nonzero;fill-opacity:1"
     id="path33" /><path
     d="m 169.385,23.132 -5.393,12.325 -5.277,-12.325 h -2.899 l 6.726,15.366 h 2.842 l 6.726,-15.366 z"
     style="fill:#000000;fill-rule:nonzero;fill-opacity:1"
     id="path34" /><path
     d="m 180.87,38.672 c 4.613,0 7.973,-3.273 7.973,-7.857 0,-4.584 -3.36,-7.828 -7.973,-7.828 -4.613,0 -8.002,3.244 -8.002,7.828 0,4.584 3.389,7.857 8.002,7.857 z m 0,-2.432 c -2.959,0 -5.193,-2.147 -5.193,-5.425 0,-3.278 2.234,-5.396 5.193,-5.396 2.959,0 5.164,2.118 5.164,5.396 0,3.278 -2.205,5.425 -5.164,5.425 z"
     style="fill:#000000;fill-rule:nonzero;fill-opacity:1"
     id="path35" /><path
     d="m 194.239,20.17 c 1.101,0 1.883,-0.811 1.883,-1.854 0,-0.985 -0.811,-1.767 -1.883,-1.767 -1.072,0 -1.883,0.811 -1.883,1.825 0,1.014 0.811,1.796 1.883,1.796 z m -3.507,24.128 c 3.16,0 4.897,-1.969 4.897,-5.1 V 23.132 h -2.78 v 16.124 c 0,1.769 -0.812,2.697 -2.291,2.697 -0.899,0 -1.711,-0.261 -2.262,-0.725 l -0.899,2.144 c 0.783,0.637 2.059,0.926 3.335,0.926 z"
     style="fill:#000000;fill-rule:nonzero;fill-opacity:1"
     id="path36" /><path
     d="m 212.681,38.498 h 3.422 l -7.105,-9.017 6.467,-6.349 h -3.364 l -8.381,7.654 V 16.984 h -2.78 v 21.514 h 2.78 v -4.204 l 3.19,-2.957 z"
     style="fill:#000000;fill-rule:nonzero;fill-opacity:1"
     id="path37" /><path
     d="m 224.109,22.987 c -2.466,0 -4.757,0.695 -6.35,1.969 l 1.159,2.089 c 1.187,-1.016 3.044,-1.655 4.872,-1.655 2.756,0 4.12,1.364 4.12,3.715 v 0.552 h -4.41 c -4.582,0 -6.175,2.026 -6.175,4.493 0,2.669 2.201,4.522 5.682,4.522 2.408,0 4.12,-0.81 5.048,-2.2 v 2.026 h 2.635 v -9.277 c 0,-4.207 -2.375,-6.234 -6.581,-6.234 z m -0.638,13.543 c -2.118,0 -3.395,-0.958 -3.395,-2.496 0,-1.306 0.784,-2.38 3.54,-2.38 h 4.294 v 2.148 c -0.696,1.77 -2.35,2.728 -4.439,2.728 z"
     style="fill:#000000;fill-rule:nonzero;fill-opacity:1"
     id="path38" /><path
     d="m 62.391,48.053 -1.464,0.128 -0.227,0.022 -0.226,0.024 -0.224,0.027 -0.222,0.028 -0.221,0.03 -0.219,0.032 -0.217,0.033 -0.215,0.036 -0.213,0.037 -0.211,0.038 -0.209,0.04 -0.206,0.041 -0.205,0.042 -0.202,0.043 -0.199,0.045 -0.197,0.045 -0.195,0.047 -0.192,0.047 -0.189,0.048 -0.186,0.049 -0.184,0.049 -0.18,0.05 -0.178,0.05 -0.174,0.051 -0.172,0.051 -0.168,0.051 -0.165,0.051 -0.161,0.051 -0.158,0.051 -0.154,0.051 -0.151,0.051 -0.148,0.05 -0.143,0.05 -0.14,0.05 -0.136,0.049 -0.132,0.048 -0.126,0.047 -0.245,0.094 -0.227,0.089 -0.21,0.084 -0.191,0.079 -0.173,0.073 -0.154,0.067 -0.134,0.06 -0.113,0.051 -0.092,0.043 -0.125,0.059 -1.147,0.564 -1.089,-2.216 1.162,-0.571 0.15,-0.072 0.112,-0.051 0.132,-0.06 0.152,-0.068 0.173,-0.075 0.192,-0.081 0.212,-0.088 0.231,-0.093 0.248,-0.097 0.265,-0.101 0.141,-0.053 0.144,-0.052 0.149,-0.054 0.152,-0.054 0.156,-0.054 0.16,-0.055 0.164,-0.055 0.168,-0.056 0.172,-0.055 0.176,-0.056 0.179,-0.056 0.182,-0.055 0.187,-0.055 0.189,-0.055 0.193,-0.055 0.197,-0.054 0.199,-0.054 0.203,-0.053 0.206,-0.052 0.209,-0.052 0.212,-0.05 0.215,-0.05 0.218,-0.049 0.221,-0.047 0.223,-0.046 0.226,-0.045 0.229,-0.044 0.231,-0.042 0.234,-0.04 0.236,-0.039 0.239,-0.037 0.241,-0.035 0.243,-0.033 0.246,-0.031 0.247,-0.029 0.25,-0.027 0.251,-0.025 1.477,-0.129 z"
     style="fill:#e8573c"
     id="path39" /><path
     d="m 8.683,45.316 0.133,10e-4 0.133,0.003 0.132,0.003 0.132,0.004 0.132,0.006 0.131,0.006 0.131,0.007 0.13,0.008 0.131,0.009 0.129,0.01 0.13,0.01 0.129,0.011 0.128,0.013 0.13,0.013 0.253,0.027 0.252,0.031 0.251,0.034 0.249,0.037 0.246,0.038 0.244,0.042 0.241,0.043 0.239,0.046 0.237,0.047 0.234,0.05 0.23,0.051 0.228,0.053 0.225,0.054 0.222,0.055 0.219,0.057 0.215,0.058 0.212,0.059 0.209,0.059 0.205,0.061 0.201,0.061 0.197,0.061 0.194,0.062 0.189,0.062 0.186,0.062 0.181,0.061 0.177,0.062 0.173,0.062 0.168,0.061 0.163,0.06 0.159,0.06 0.154,0.059 0.149,0.059 0.144,0.057 0.139,0.056 0.135,0.055 0.25,0.105 0.229,0.099 0.206,0.091 0.183,0.083 0.158,0.073 0.132,0.063 0.106,0.052 0.08,0.039 1.164,0.59 -1.115,2.202 -1.154,-0.584 -0.061,-0.03 -0.088,-0.043 -0.114,-0.054 -0.138,-0.064 -0.162,-0.074 -0.185,-0.082 -0.207,-0.089 -0.23,-0.096 -0.12,-0.049 -0.126,-0.051 -0.131,-0.052 -0.136,-0.053 -0.141,-0.054 -0.145,-0.055 -0.149,-0.055 -0.154,-0.056 -0.157,-0.056 -0.162,-0.057 -0.166,-0.057 -0.169,-0.056 -0.173,-0.057 -0.177,-0.056 -0.18,-0.056 -0.183,-0.056 -0.187,-0.055 -0.19,-0.054 -0.193,-0.053 -0.195,-0.053 -0.198,-0.051 -0.201,-0.05 -0.204,-0.049 -0.206,-0.048 -0.208,-0.046 -0.21,-0.045 L 12.015,48.141 11.8,48.1 11.584,48.061 11.367,48.024 11.147,47.989 10.927,47.957 10.704,47.927 10.481,47.9 10.255,47.875 10.144,47.864 10.031,47.853 9.918,47.843 9.805,47.834 9.692,47.826 9.578,47.818 9.465,47.811 9.351,47.805 9.237,47.799 9.123,47.795 9.009,47.791 8.894,47.788 8.78,47.786 8.666,47.785 8.551,47.784 8.437,47.785 8.322,47.786 6.969,47.813 6.919,45.345 8.283,45.318 8.417,45.316 8.55,45.315 Z"
     style="fill:#e8573c"
     id="path40" /><path
     d="m 38.644,51.286 0.269,0.002 0.267,0.003 0.266,0.004 0.265,0.005 0.263,0.007 0.263,0.008 0.261,0.009 0.26,0.01 0.258,0.011 0.257,0.013 0.256,0.013 0.255,0.015 0.253,0.016 0.252,0.016 0.251,0.018 0.25,0.019 0.248,0.02 0.247,0.021 0.245,0.022 0.244,0.022 0.243,0.024 0.242,0.025 0.24,0.025 0.239,0.027 0.237,0.027 0.236,0.028 0.235,0.029 0.233,0.03 0.232,0.031 0.23,0.032 0.23,0.032 0.227,0.033 0.227,0.034 0.224,0.034 0.224,0.036 0.222,0.036 0.221,0.036 0.219,0.038 0.217,0.038 0.217,0.038 0.214,0.04 0.214,0.039 0.212,0.041 0.21,0.041 0.209,0.042 0.207,0.042 0.206,0.042 0.205,0.044 0.202,0.043 0.202,0.044 0.2,0.045 0.199,0.045 0.391,0.092 0.386,0.093 0.38,0.094 0.373,0.096 0.367,0.097 0.361,0.098 0.354,0.099 0.348,0.1 0.341,0.101 0.335,0.101 0.329,0.102 0.321,0.102 0.315,0.102 0.308,0.102 0.301,0.102 0.295,0.102 0.288,0.102 0.28,0.101 0.274,0.1 0.267,0.1 0.259,0.099 0.253,0.098 0.245,0.097 0.239,0.096 0.23,0.095 0.224,0.093 0.216,0.091 0.209,0.09 0.202,0.087 0.194,0.086 0.186,0.084 0.179,0.081 0.171,0.079 0.164,0.077 0.155,0.074 0.149,0.071 0.141,0.069 0.255,0.127 0.225,0.115 0.193,0.1 0.161,0.086 0.127,0.069 0.095,0.053 1.145,0.655 -1.225,2.143 L 60.721,58.834 60.647,58.793 60.54,58.734 60.4,58.66 60.228,58.57 60.025,58.467 59.789,58.349 59.661,58.287 59.525,58.221 59.381,58.153 59.229,58.082 59.07,58.008 58.903,57.932 58.729,57.854 58.547,57.774 58.358,57.692 58.162,57.608 57.959,57.522 57.748,57.434 57.531,57.345 57.306,57.255 57.074,57.163 56.836,57.07 56.59,56.977 56.337,56.882 56.078,56.787 55.812,56.691 55.539,56.595 55.259,56.498 54.973,56.401 54.68,56.304 54.381,56.207 54.075,56.11 53.763,56.013 53.444,55.917 53.119,55.821 52.788,55.726 52.45,55.631 l -0.343,-0.093 -0.35,-0.093 -0.356,-0.091 -0.362,-0.09 -0.369,-0.089 -0.375,-0.088 -0.188,-0.042 -0.191,-0.043 -0.192,-0.042 -0.193,-0.042 -0.196,-0.041 -0.196,-0.041 -0.198,-0.04 -0.2,-0.04 -0.2,-0.039 -0.203,-0.039 -0.203,-0.038 -0.206,-0.037 -0.206,-0.037 -0.208,-0.036 -0.209,-0.036 -0.211,-0.035 -0.212,-0.034 -0.214,-0.034 -0.214,-0.033 -0.217,-0.032 -0.217,-0.032 -0.219,-0.031 -0.22,-0.03 -0.222,-0.029 -0.223,-0.029 -0.224,-0.028 -0.226,-0.027 -0.227,-0.026 -0.228,-0.025 -0.229,-0.025 -0.231,-0.023 -0.232,-0.023 -0.234,-0.022 -0.234,-0.02 -0.236,-0.02 -0.238,-0.019 -0.238,-0.018 -0.24,-0.017 -0.241,-0.016 -0.242,-0.015 -0.244,-0.014 -0.244,-0.013 -0.246,-0.012 -0.248,-0.011 -0.248,-0.01 -0.25,-0.008 -0.251,-0.008 -0.252,-0.006 -0.253,-0.005 -0.254,-0.004 -0.256,-0.003 -0.257,-0.002 h -0.258 -0.259 l -0.26,0.002 -0.262,0.004 -0.262,0.004 -0.264,0.006 -0.265,0.007 -0.266,0.009 -0.267,0.01 -0.268,0.011 -0.27,0.012 -0.27,0.014 -0.272,0.016 -0.272,0.016 -0.274,0.018 -0.275,0.02 -0.276,0.021 -0.277,0.023 -0.278,0.024 -0.279,0.025 -0.281,0.027 -0.281,0.029 -0.282,0.03 -0.284,0.032 -0.284,0.033 -0.286,0.035 -0.286,0.037 -0.288,0.038 -0.288,0.04 -0.29,0.041 -0.29,0.043 -0.292,0.045 -0.292,0.047 -0.294,0.048 -0.294,0.05 -0.296,0.052 -0.296,0.054 -0.298,0.055 -0.298,0.057 -0.3,0.059 -0.3,0.061 -0.301,0.063 -0.302,0.064 -0.303,0.067 -0.305,0.068 -0.305,0.07 -0.305,0.073 -0.307,0.074 -0.308,0.076 -0.309,0.078 -0.309,0.08 -0.311,0.082 -0.311,0.084 -0.312,0.086 -0.313,0.089 -0.314,0.09 -0.315,0.092 -0.315,0.095 -0.317,0.096 -0.317,0.099 -0.319,0.101 -0.319,0.103 -0.319,0.105 -0.321,0.108 -0.322,0.11 -0.322,0.111 -0.323,0.115 -0.324,0.116 -0.325,0.119 -0.325,0.121 -0.327,0.123 -0.327,0.126 -0.328,0.128 -0.328,0.13 -0.33,0.133 -0.33,0.135 -0.331,0.137 -0.332,0.14 -0.332,0.143 -0.333,0.144 -0.334,0.148 -0.335,0.15 -0.335,0.152 -0.337,0.155 -0.336,0.157 -0.338,0.16 -0.338,0.163 -0.339,0.165 -0.34,0.167 -0.34,0.171 -0.341,0.173 -0.342,0.175 -0.342,0.178 -0.343,0.181 -0.344,0.184 -0.344,0.186 -0.345,0.189 -1.428,0.793 -1.198,-2.159 1.434,-0.796 0.356,-0.195 0.356,-0.193 0.355,-0.189 0.355,-0.187 0.354,-0.185 0.353,-0.181 0.353,-0.179 0.352,-0.177 0.352,-0.173 0.351,-0.171 0.35,-0.168 0.35,-0.166 0.348,-0.163 0.349,-0.16 0.347,-0.158 0.347,-0.155 0.346,-0.153 0.346,-0.15 0.344,-0.148 0.344,-0.145 0.344,-0.143 0.342,-0.14 0.342,-0.138 0.341,-0.135 0.341,-0.133 0.339,-0.13 0.339,-0.128 0.338,-0.126 0.338,-0.123 0.336,-0.121 0.336,-0.119 0.335,-0.116 0.334,-0.114 0.333,-0.112 0.333,-0.109 0.332,-0.107 0.331,-0.105 0.33,-0.103 0.329,-0.101 0.329,-0.098 0.327,-0.096 0.327,-0.094 0.326,-0.092 0.325,-0.089 0.324,-0.088 0.323,-0.085 0.322,-0.084 0.322,-0.081 0.32,-0.08 0.32,-0.077 0.319,-0.075 0.318,-0.073 0.316,-0.071 0.316,-0.07 0.315,-0.067 0.314,-0.065 0.314,-0.064 0.312,-0.061 0.311,-0.06 0.31,-0.058 0.309,-0.056 0.309,-0.054 0.307,-0.052 0.306,-0.05 0.305,-0.049 0.304,-0.047 0.304,-0.045 0.302,-0.043 0.301,-0.042 0.3,-0.04 0.299,-0.038 0.298,-0.036 0.297,-0.035 0.296,-0.033 0.295,-0.032 0.294,-0.03 0.292,-0.028 0.292,-0.026 0.29,-0.026 0.29,-0.023 0.288,-0.022 0.287,-0.021 0.286,-0.019 0.285,-0.017 0.284,-0.016 0.283,-0.015 0.281,-0.013 0.28,-0.012 0.28,-0.01 0.278,-0.009 0.276,-0.007 0.276,-0.006 0.274,-0.005 0.274,-0.003 0.272,-0.003 h 0.271 z"
     style="fill:#e8573c"
     id="path41" /><path
     d="m 51.891,55.493 0.263,0.003 0.263,0.005 0.265,0.007 0.265,0.008 0.267,0.009 0.268,0.012 0.269,0.013 0.269,0.015 0.272,0.016 0.272,0.019 0.273,0.02 0.274,0.021 0.275,0.024 0.277,0.025 0.277,0.028 0.279,0.029 0.279,0.031 0.281,0.032 0.282,0.035 0.283,0.037 0.283,0.038 0.285,0.04 0.286,0.043 0.287,0.044 0.288,0.046 0.29,0.048 0.29,0.05 0.291,0.052 0.292,0.054 0.294,0.057 0.294,0.058 0.295,0.06 0.297,0.062 1.5,0.325 -0.521,2.413 L 60.601,58.949 60.319,58.89 60.038,58.832 59.758,58.777 59.48,58.724 59.202,58.672 58.925,58.623 58.65,58.575 58.375,58.53 58.102,58.486 57.83,58.444 57.559,58.404 57.289,58.366 57.02,58.329 56.752,58.295 56.485,58.262 56.22,58.231 55.955,58.202 55.691,58.174 55.429,58.148 55.168,58.124 54.907,58.102 54.648,58.081 54.39,58.062 54.133,58.045 53.877,58.029 53.623,58.015 53.369,58.003 53.116,57.992 52.865,57.983 52.614,57.976 52.365,57.97 52.117,57.965 51.869,57.962 51.623,57.961 h -0.245 l -0.244,0.001 -0.243,0.003 -0.241,0.005 -0.241,0.006 -0.24,0.008 -0.238,0.008 -0.238,0.011 -0.236,0.011 -0.235,0.013 -0.235,0.015 -0.233,0.016 -0.232,0.017 -0.231,0.018 -0.23,0.02 -0.228,0.021 -0.228,0.023 -0.227,0.023 -0.225,0.025 -0.225,0.026 -0.223,0.028 -0.223,0.028 -0.221,0.03 -0.22,0.031 -0.219,0.032 -0.218,0.034 -0.217,0.034 -0.216,0.036 -0.215,0.037 -0.214,0.038 -0.212,0.039 -0.212,0.04 -0.211,0.041 -0.209,0.042 -0.208,0.043 -0.208,0.045 -0.206,0.045 -0.205,0.046 -0.204,0.047 -0.203,0.049 -0.202,0.049 -0.201,0.05 -0.199,0.051 -0.199,0.052 -0.198,0.053 -0.196,0.054 -0.196,0.055 -0.194,0.055 -0.193,0.057 -0.192,0.057 -0.192,0.058 -0.19,0.059 -0.189,0.06 -0.187,0.06 -0.187,0.061 -0.186,0.062 -0.185,0.063 -0.183,0.064 -0.183,0.064 -0.181,0.065 -0.18,0.065 -0.18,0.067 -0.178,0.066 -0.177,0.068 -0.176,0.068 -0.175,0.069 -0.174,0.07 -0.172,0.07 -0.172,0.07 -0.171,0.071 -0.169,0.072 -0.169,0.073 -0.167,0.072 -0.166,0.074 -0.165,0.074 -0.164,0.074 -0.163,0.075 -0.162,0.075 -0.161,0.076 -0.16,0.076 -0.158,0.076 -0.158,0.077 -0.156,0.078 -0.156,0.077 -0.154,0.079 -0.153,0.078 -0.152,0.079 -0.151,0.079 -0.15,0.079 -0.149,0.08 -0.148,0.08 -0.146,0.08 -0.146,0.081 -0.144,0.081 -0.142,0.08 -0.285,0.163 -0.279,0.164 -0.274,0.164 -0.27,0.164 -0.266,0.165 -0.261,0.166 -0.257,0.165 -0.252,0.166 -0.248,0.165 -0.244,0.166 -0.239,0.165 -0.235,0.165 -0.23,0.164 -0.225,0.164 -0.222,0.163 -0.216,0.162 -0.212,0.162 -0.208,0.16 -0.203,0.159 -0.199,0.159 -0.194,0.156 -0.19,0.155 -0.185,0.154 -0.181,0.152 -0.176,0.15 -0.171,0.149 -0.167,0.146 -0.163,0.144 -0.158,0.142 -0.153,0.14 -0.149,0.137 -0.144,0.134 -0.139,0.132 -0.135,0.129 -0.131,0.126 -0.125,0.123 -0.121,0.12 -0.117,0.117 -0.112,0.113 -0.107,0.11 -0.103,0.106 -0.098,0.103 -0.092,0.098 -0.174,0.187 -0.154,0.169 -0.135,0.151 -0.117,0.134 -0.098,0.114 -0.079,0.093 -0.06,0.073 -0.041,0.05 -0.802,1.01 -1.933,-1.536 0.81,-1.02 0.056,-0.068 0.074,-0.09 0.094,-0.112 0.113,-0.131 0.133,-0.152 0.151,-0.17 0.172,-0.188 0.189,-0.203 0.103,-0.109 0.107,-0.113 0.112,-0.116 0.117,-0.119 0.122,-0.124 0.126,-0.126 0.131,-0.13 0.136,-0.133 0.141,-0.137 0.146,-0.139 0.15,-0.142 0.155,-0.145 0.16,-0.147 0.165,-0.15 0.17,-0.152 0.174,-0.155 0.179,-0.157 0.184,-0.159 0.188,-0.161 0.194,-0.162 0.198,-0.165 0.203,-0.166 0.207,-0.167 0.213,-0.169 0.217,-0.17 0.222,-0.172 0.226,-0.172 0.232,-0.174 0.236,-0.174 0.241,-0.175 0.245,-0.175 0.25,-0.176 0.256,-0.176 0.259,-0.177 0.265,-0.176 0.269,-0.177 0.274,-0.176 0.279,-0.177 0.283,-0.176 0.288,-0.175 0.293,-0.175 0.298,-0.174 0.301,-0.173 0.154,-0.087 0.154,-0.087 0.155,-0.086 0.156,-0.085 0.158,-0.086 0.159,-0.085 0.16,-0.084 0.161,-0.085 0.162,-0.084 0.164,-0.084 0.164,-0.083 0.166,-0.083 0.167,-0.082 0.168,-0.083 0.169,-0.081 0.171,-0.082 0.172,-0.08 0.172,-0.081 0.174,-0.08 0.175,-0.079 0.177,-0.079 0.177,-0.078 0.179,-0.078 0.18,-0.077 0.181,-0.077 0.182,-0.076 0.183,-0.075 0.184,-0.075 0.186,-0.074 0.187,-0.073 0.188,-0.073 0.189,-0.072 0.19,-0.072 0.192,-0.071 0.192,-0.07 0.194,-0.069 0.195,-0.069 0.196,-0.067 0.197,-0.067 0.198,-0.067 0.2,-0.065 0.2,-0.065 0.202,-0.063 0.203,-0.063 0.204,-0.062 0.205,-0.061 0.207,-0.061 0.207,-0.059 0.209,-0.058 0.21,-0.058 0.211,-0.056 0.212,-0.056 0.213,-0.055 0.215,-0.053 0.215,-0.053 0.217,-0.051 0.218,-0.051 0.219,-0.049 0.22,-0.048 0.221,-0.048 0.222,-0.046 0.224,-0.045 0.224,-0.044 0.226,-0.042 0.227,-0.042 0.228,-0.04 0.229,-0.04 0.23,-0.038 0.232,-0.037 0.232,-0.035 0.234,-0.034 0.235,-0.034 0.236,-0.031 0.237,-0.031 0.238,-0.029 0.239,-0.028 0.24,-0.027 0.242,-0.025 0.242,-0.024 0.244,-0.022 0.245,-0.021 0.246,-0.02 0.247,-0.018 0.248,-0.017 0.249,-0.015 0.25,-0.014 0.252,-0.013 0.252,-0.011 0.254,-0.009 0.255,-0.008 0.256,-0.006 0.257,-0.005 0.258,-0.003 0.259,-0.002 h 0.26 z"
     style="fill:#e8573c"
     id="path42" /><path
     d="m 23.107,46.856 c 0.343,0.337 0.701,0.659 1.073,0.965 l -1.136,2.277 c -0.38,-0.295 -0.749,-0.604 -1.106,-0.927 z m 23.94,-0.747 1.159,2.392 c -0.304,0.305 -0.619,0.599 -0.943,0.882 l -1.052,-2.409 c 0.289,-0.278 0.568,-0.567 0.836,-0.865 z m -26.515,1.653 c -3.035,-3.378 -4.883,-7.845 -4.883,-12.739 0,-9.685 7.235,-17.693 16.59,-18.911 v 2.513 c -7.977,1.199 -14.102,8.088 -14.102,16.398 0,3.915 1.36,7.515 3.632,10.353 z M 48.325,44.5 c 1.876,-2.687 2.977,-5.954 2.977,-9.477 0,-8.31 -6.124,-15.199 -14.101,-16.398 v -2.513 c 9.355,1.218 16.59,9.226 16.59,18.911 0,4.53 -1.584,8.694 -4.227,11.967 z"
     style="fill:#e8573c"
     id="path43" /></svg>
